<svg width="357" height="297" viewBox="0 0 357 297" fill="none" xmlns="http://www.w3.org/2000/svg">
<path d="M212.3 283.521L191.4 262.221H141.4L120.2 283.521H102.8L98.1001 296.021H233.9L229 283.521H212.3Z" fill="#0D351C"/>
<path d="M303.1 220.121V224.921H26.1V40.7205C26.1 39.3205 27.8 38.3205 28.9 38.3205H164.9C163.7 34.7205 163.1 30.9205 163.1 26.9205C163.1 23.1205 163.7 19.4205 164.7 16.0205H18C8.1 16.0205 0 23.7205 0 34.0205V238.921C0 248.821 8.2 256.921 18 256.921H310.9C320.9 256.921 329.3 248.821 329.3 238.921V217.421H303.1V220.121ZM310.8 16.0205H235.1C236.2 19.5205 236.8 23.1205 236.8 26.9205C236.8 30.9205 236.2 34.7205 235 38.3205H299.8C301.5 38.3205 302.3 39.2205 302.3 40.7205V122.721L302.8 181.721H329.3V34.0205C329.2 23.7205 320.7 16.0205 310.8 16.0205Z" fill="#0D351C"/>
<path d="M78.0001 204.221C76.6001 204.221 75.5001 202.921 75.7001 201.521L77.2001 192.021C77.4001 190.921 78.3001 190.021 79.5001 190.021H106.2C107.3 190.021 108.2 190.821 108.5 191.921L110.5 201.521C110.8 202.921 109.7 204.221 108.3 204.221H78.0001Z" stroke="white" stroke-width="7" stroke-miterlimit="10"/>
<path d="M124.4 135.121L96.3 88.7205C95.9 88.0205 94.7 88.3205 94.7 89.1205V130.521C96.4 131.021 97.7 132.621 97.7 134.521C97.7 136.821 95.8 138.621 93.6 138.621C91.3 138.621 89.5 136.721 89.5 134.521C89.5 132.621 90.8 131.021 92.6 130.521V89.0205C92.6 88.2205 91.5 87.8205 91.1 88.5205L60.9 135.421C60.8 135.621 60.7 135.921 60.8 136.221L77.3 176.521C77.4 176.821 77.7 177.021 78.1 177.021H107.6C107.9 177.021 108.3 176.821 108.4 176.521L124.6 135.821C124.6 135.621 124.6 135.321 124.4 135.121Z" stroke="white" stroke-width="7" stroke-miterlimit="10"/>
<path d="M48.5 85.9205C48.5 85.9205 88.8 45.6205 139.2 85.9205" stroke="white" stroke-width="7" stroke-miterlimit="10"/>
<path d="M56.1 86.9205C56.1 91.8205 52.2 95.7205 47.3 95.7205C42.4 95.7205 38.5 91.8205 38.5 86.9205C38.5 82.0205 42.4 78.1205 47.3 78.1205C52.1 78.1205 56.1 82.1205 56.1 86.9205Z" fill="white"/>
<path d="M148 86.9205C148 91.8205 144.1 95.7205 139.2 95.7205C134.3 95.7205 130.4 91.8205 130.4 86.9205C130.4 82.0205 134.3 78.1205 139.2 78.1205C144.1 78.1205 148 82.1205 148 86.9205Z" fill="white"/>
<path d="M102.8 59.0205H84.8999V76.9205H102.8V59.0205Z" fill="white"/>
<path d="M218.3 26.9205C218.3 37.4205 209.7 46.0205 199.2 46.0205C188.7 46.0205 180.1 37.4205 180.1 26.9205C180.1 16.4205 188.7 7.82047 199.2 7.82047C209.9 8.02047 218.3 16.4205 218.3 26.9205Z" stroke="white" stroke-width="3" stroke-miterlimit="10"/>
<path d="M197.5 2.42047C197.5 4.02047 197.5 5.62047 197.5 7.22047C197.5 11.1205 197.5 15.0205 197.5 18.8205C197.5 23.5205 197.5 28.2205 197.5 33.0205C197.5 37.0205 197.5 41.2205 197.5 45.3205C197.5 47.2205 197.5 49.3205 197.5 51.3205C197.5 51.3205 197.5 51.3205 197.5 51.5205C197.5 52.8205 198.6 54.1205 199.9 53.9205C201.2 53.9205 202.3 52.8205 202.3 51.5205C202.3 49.9205 202.3 48.3205 202.3 46.7205C202.3 42.8205 202.3 38.9205 202.3 35.1205C202.3 30.4205 202.3 25.7205 202.3 20.9205C202.3 16.9205 202.3 12.7205 202.3 8.62047C202.3 6.72047 202.3 4.62047 202.3 2.62047C202.3 2.62047 202.3 2.62047 202.3 2.42047C202.3 1.12047 201.2 -0.179532 199.9 0.0204683C198.6 0.0204683 197.5 1.12047 197.5 2.42047Z" fill="white"/>
<path d="M224.5 24.5205C222.9 24.5205 221.3 24.5205 219.7 24.5205C215.8 24.5205 211.9 24.5205 208.1 24.5205C203.4 24.5205 198.7 24.5205 193.9 24.5205C189.9 24.5205 185.7 24.5205 181.6 24.5205C179.7 24.5205 177.6 24.5205 175.6 24.5205C175.6 24.5205 175.6 24.5205 175.4 24.5205C174.1 24.5205 172.8 25.6205 173 26.9205C173 28.2205 174.1 29.3205 175.4 29.3205C177 29.3205 178.6 29.3205 180.2 29.3205C184.1 29.3205 188 29.3205 191.8 29.3205C196.5 29.3205 201.2 29.3205 206 29.3205C210 29.3205 214.2 29.3205 218.3 29.3205C220.2 29.3205 222.3 29.3205 224.3 29.3205C224.3 29.3205 224.3 29.3205 224.5 29.3205C225.8 29.3205 227.1 28.2205 226.9 26.9205C226.9 25.6205 225.9 24.5205 224.5 24.5205Z" fill="white"/>
<path d="M288.6 71.0205C288.6 76.9205 283.8 81.7205 277.9 81.7205C272 81.7205 267.2 76.9205 267.2 71.0205C267.2 65.1205 272 60.3205 277.9 60.3205C283.9 60.3205 288.6 65.1205 288.6 71.0205Z" stroke="white" stroke-width="3" stroke-miterlimit="10"/>
<path d="M276.8 57.1205C276.8 58.0205 276.8 58.9205 276.8 59.8205C276.8 62.0205 276.8 64.2205 276.8 66.3205C276.8 68.9205 276.8 71.6205 276.8 74.3205C276.8 76.6205 276.8 78.9205 276.8 81.2205C276.8 82.3205 276.8 83.5205 276.8 84.6205C276.8 84.6205 276.8 84.6205 276.8 84.7205C276.8 85.4205 277.4 86.2205 278.2 86.1205C278.9 86.1205 279.6 85.5205 279.6 84.7205C279.6 83.8205 279.6 82.9205 279.6 82.0205C279.6 79.8205 279.6 77.6205 279.6 75.5205C279.6 72.9205 279.6 70.2205 279.6 67.5205C279.6 65.2205 279.6 62.9205 279.6 60.6205C279.6 59.5205 279.6 58.3205 279.6 57.2205C279.6 57.2205 279.6 57.2205 279.6 57.1205C279.6 56.4205 279 55.6205 278.2 55.7205C277.5 55.8205 276.8 56.4205 276.8 57.1205Z" fill="white"/>
<path d="M292 69.6205C291.1 69.6205 290.2 69.6205 289.3 69.6205C287.1 69.6205 284.9 69.6205 282.8 69.6205C280.2 69.6205 277.5 69.6205 274.8 69.6205C272.5 69.6205 270.2 69.6205 267.9 69.6205C266.8 69.6205 265.6 69.6205 264.5 69.6205C264.5 69.6205 264.5 69.6205 264.4 69.6205C263.7 69.6205 262.9 70.2205 263 71.0205C263 71.7205 263.6 72.4205 264.4 72.4205C265.3 72.4205 266.2 72.4205 267.1 72.4205C269.3 72.4205 271.5 72.4205 273.6 72.4205C276.2 72.4205 278.9 72.4205 281.6 72.4205C283.9 72.4205 286.2 72.4205 288.5 72.4205C289.6 72.4205 290.8 72.4205 291.9 72.4205C291.9 72.4205 291.9 72.4205 292 72.4205C292.7 72.4205 293.5 71.8205 293.4 71.0205C293.4 70.2205 292.9 69.6205 292 69.6205Z" fill="white"/>
<path d="M190.6 209.721H177.3C174.6 209.721 172.4 207.521 172.4 204.821V194.921C172.4 192.221 174.6 190.021 177.3 190.021H190.6C193.3 190.021 195.5 192.221 195.5 194.921V204.821C195.5 207.521 193.3 209.721 190.6 209.721Z" fill="white"/>
<path d="M222.2 209.721H208.9C206.2 209.721 204 207.521 204 204.821V194.921C204 192.221 206.2 190.021 208.9 190.021H222.2C224.9 190.021 227.1 192.221 227.1 194.921V204.821C227.1 207.521 224.9 209.721 222.2 209.721Z" fill="white"/>
<path d="M352.1 209.721H238.8C236.1 209.721 233.9 207.521 233.9 204.821V194.921C233.9 192.221 236.1 190.021 238.8 190.021H352.1C354.8 190.021 357 192.221 357 194.921V204.821C357 207.521 354.8 209.721 352.1 209.721Z" fill="white"/>
<path d="M257.3 147.121C257.3 161.921 245.3 173.921 230.5 173.921H173.3V89.9205H226.2C238.7 89.9205 248.9 100.121 248.9 112.621C248.9 117.221 247.6 121.421 245.3 124.821C252.5 129.621 257.3 137.821 257.3 147.121ZM188.3 120.321H226.3C230.5 120.321 234 116.821 234 112.621C234 108.421 230.5 104.921 226.3 104.921H188.3V120.321ZM242.3 147.121C242.3 140.621 237 135.321 230.5 135.321H188.3V159.021H230.5C237 158.921 242.3 153.621 242.3 147.121Z" fill="white"/>
</svg>
