<svg width="50" height="48" viewBox="0 0 50 48" fill="none" xmlns="http://www.w3.org/2000/svg">
<g clip-path="url(#clip0_2019_291)">
<path d="M47.5 0H2.5C1.11979 0.00206897 0.00208333 1.11207 0 2.48276V45.5172C0.00208333 46.8879 1.11979 47.9979 2.5 48H47.5C48.8802 47.9979 49.9979 46.8879 50 45.5172V2.48276C49.9979 1.11207 48.8802 0.00206897 47.5 0ZM2.5 1.65517H47.5C47.9604 1.65517 48.3333 2.02552 48.3333 2.48276V6.62069H1.66667V2.48276C1.66667 2.02552 2.03958 1.65517 2.5 1.65517ZM47.5 46.3448H2.5C2.03958 46.3448 1.66667 45.9745 1.66667 45.5172V8.27586H48.3333V45.5172C48.3333 45.9745 47.9604 46.3448 47.5 46.3448Z" fill="#31A75D"/>
<path d="M10.8333 4.96554C11.2936 4.96554 11.6667 4.59501 11.6667 4.13795C11.6667 3.68089 11.2936 3.31036 10.8333 3.31036C10.3731 3.31036 10 3.68089 10 4.13795C10 4.59501 10.3731 4.96554 10.8333 4.96554Z" fill="#31A75D"/>
<path d="M7.49999 4.96554C7.96023 4.96554 8.33332 4.59501 8.33332 4.13795C8.33332 3.68089 7.96023 3.31036 7.49999 3.31036C7.03975 3.31036 6.66666 3.68089 6.66666 4.13795C6.66666 4.59501 7.03975 4.96554 7.49999 4.96554Z" fill="#31A75D"/>
<path d="M4.16668 4.96554C4.62691 4.96554 5.00001 4.59501 5.00001 4.13795C5.00001 3.68089 4.62691 3.31036 4.16668 3.31036C3.70644 3.31036 3.33334 3.68089 3.33334 4.13795C3.33334 4.59501 3.70644 4.96554 4.16668 4.96554Z" fill="#31A75D"/>
<path d="M44.1667 11.5862H5.83333C5.37292 11.5862 5 11.9565 5 12.4138V37.2414C5 37.6986 5.37292 38.0689 5.83333 38.0689H44.1667C44.6271 38.0689 45 37.6986 45 37.2414V12.4138C45 11.9565 44.6271 11.5862 44.1667 11.5862ZM30.5052 35.4269L32.5 33.4458L35.4885 36.4138H31.25L30.5052 35.4269ZM29.1667 36.4138H22.5L25.8333 31.9996L29.1667 36.4138ZM20.4167 36.4138H14.101L18.3333 30.4086L21.5281 34.9417L20.4167 36.4138ZM43.3333 36.4138H37.8448L33.0885 31.6903C32.7635 31.3676 32.2354 31.3676 31.9104 31.6903L29.4948 34.0893L26.5 30.1241C26.224 29.7589 25.701 29.6845 25.3333 29.9586C25.2698 30.0051 25.2135 30.061 25.1667 30.1241L22.5812 33.5483L19.0167 28.4907C18.7531 28.1162 18.2333 28.0251 17.8562 28.2869C17.776 28.3427 17.7073 28.411 17.651 28.4907L12.0667 36.4138H6.66667V13.2414H43.3333V36.4138Z" fill="#31A75D"/>
<path d="M20 16.5517H30C30.4604 16.5517 30.8333 16.1814 30.8333 15.7241C30.8333 15.2669 30.4604 14.8965 30 14.8965H20C19.5396 14.8965 19.1667 15.2669 19.1667 15.7241C19.1667 16.1814 19.5396 16.5517 20 16.5517Z" fill="#31A75D"/>
<path d="M21.6667 21.5172H18.3333C16.9531 21.5172 15.8333 22.6293 15.8333 24C15.8333 25.3707 16.9531 26.4827 18.3333 26.4827H21.6667C23.0469 26.4827 24.1667 25.3707 24.1667 24C24.1667 22.6293 23.0469 21.5172 21.6667 21.5172ZM21.6667 24.8276H18.3333C17.8729 24.8276 17.5 24.4572 17.5 24C17.5 23.5427 17.8729 23.1724 18.3333 23.1724H21.6667C22.1271 23.1724 22.5 23.5427 22.5 24C22.5 24.4572 22.1271 24.8276 21.6667 24.8276Z" fill="#31A75D"/>
<path d="M25.8333 24C25.8354 25.3707 26.9531 26.4807 28.3333 26.4827H31.6667C33.0469 26.4827 34.1667 25.3707 34.1667 24C34.1667 22.6293 33.0469 21.5172 31.6667 21.5172H28.3333C26.9531 21.5193 25.8354 22.6293 25.8333 24ZM32.5 24C32.5 24.4572 32.1271 24.8276 31.6667 24.8276H28.3333C27.8729 24.8276 27.5 24.4572 27.5 24C27.5 23.5427 27.8729 23.1724 28.3333 23.1724H31.6667C32.1271 23.1724 32.5 23.5427 32.5 24Z" fill="#31A75D"/>
<path d="M26.0771 39.9662L25 41.0358L23.9229 39.9662C23.5979 39.6434 23.0698 39.6434 22.7448 39.9662C22.4198 40.2889 22.4198 40.8134 22.7448 41.1362L24.4115 42.7914C24.7365 43.1141 25.2646 43.1141 25.5896 42.7914L27.2562 41.1362C27.5812 40.8134 27.5812 40.2889 27.2562 39.9662C26.9312 39.6434 26.4031 39.6434 26.0781 39.9662H26.0771Z" fill="#31A75D"/>
<path d="M30 29.7931C30.4602 29.7931 30.8333 29.4226 30.8333 28.9655C30.8333 28.5085 30.4602 28.1379 30 28.1379C29.5398 28.1379 29.1667 28.5085 29.1667 28.9655C29.1667 29.4226 29.5398 29.7931 30 29.7931Z" fill="#31A75D"/>
<path d="M15.8333 19.8621H17.5C17.9604 19.8621 18.3333 19.4917 18.3333 19.0345C18.3333 18.5773 17.9604 18.2069 17.5 18.2069H15.8333C15.3729 18.2069 15 18.5773 15 19.0345C15 19.4917 15.3729 19.8621 15.8333 19.8621Z" fill="#31A75D"/>
<path d="M30 19.0345C30 18.5773 29.6271 18.2069 29.1667 18.2069H20.8333C20.3729 18.2069 20 18.5773 20 19.0345C20 19.4917 20.3729 19.8621 20.8333 19.8621H29.1667C29.6271 19.8621 30 19.4917 30 19.0345Z" fill="#31A75D"/>
<path d="M32.5 19.8621H34.1667C34.6271 19.8621 35 19.4917 35 19.0345C35 18.5773 34.6271 18.2069 34.1667 18.2069H32.5C32.0396 18.2069 31.6667 18.5773 31.6667 19.0345C31.6667 19.4917 32.0396 19.8621 32.5 19.8621Z" fill="#31A75D"/>
</g>
<defs>
<clipPath id="clip0_2019_291">
<rect width="50" height="48" fill="white"/>
</clipPath>
</defs>
</svg>
