<svg width="193" height="109" viewBox="0 0 193 109" fill="none" xmlns="http://www.w3.org/2000/svg">
<path fill-rule="evenodd" clip-rule="evenodd" d="M161.385 20.2766V29.3942H178.402V33.4079C174.808 36.272 169.813 37.3721 163.475 37.3721C150.994 37.3721 143.955 32.5953 143.955 23.7948C143.955 14.9944 150.764 10.287 163.257 10.287C170.146 10.287 174.739 11.8033 179.183 15.2422L190.103 8.23553C184.867 3.88487 175.681 0 162.924 0C145.7 0 133.896 5.75793 130.119 16.0846V1.47665H114.17L94.7299 22.893L75.4165 1.47665H59.0655V15.1431C54.8745 6.43184 43.9432 1.47665 28.706 1.47665H0V46.0734H28.706C43.9547 46.0734 54.8859 41.1182 59.077 32.407V46.0932H73.4874V17.6008L93.9491 39.4037H94.6955L115.169 17.6008V46.0932H130.096V31.4853C133.896 41.8119 145.723 47.5699 162.901 47.5699C176.68 47.5699 186.761 43.6057 192.262 37.6595V20.2766H161.385ZM27.5578 35.7567H14.9271V11.7934H27.5578C38.5235 11.7934 45.723 15.8566 45.723 23.7849C45.723 31.7132 38.5235 35.7567 27.5578 35.7567ZM128.711 80.1776C128.711 78.017 127.886 75.7351 126.162 74.1085C124.512 72.5306 122.181 71.7052 119.778 71.7052C117.374 71.7052 115.044 72.5306 113.393 74.1085C111.669 75.7351 110.844 78.017 110.844 80.1776C110.844 82.3139 111.669 84.5716 113.393 86.2224C115.044 87.8004 117.374 88.6258 119.778 88.6258C122.181 88.6258 124.512 87.8004 126.162 86.2224C127.886 84.5716 128.711 82.3139 128.711 80.1776ZM119.778 75.7836C120.894 75.7836 122.133 76.2206 123.031 77.0703C123.783 77.7985 124.342 78.9153 124.342 80.1776C124.342 81.4157 123.783 82.5324 123.031 83.285C122.278 84.0376 121.21 84.5474 119.778 84.5474C118.37 84.5474 117.277 84.0133 116.5 83.2607C115.894 82.6781 115.214 81.6828 115.214 80.2505C115.214 79.1095 115.627 77.9199 116.5 77.0703C117.374 76.1963 118.613 75.7836 119.778 75.7836ZM82.5803 81.4885C81.3179 82.7266 79.8127 82.8966 78.5504 82.8966H75.9043V88.2617H71.7044V72.0693H78.4047C79.8127 72.0693 81.2693 72.3364 82.5074 73.5259C83.7698 74.7397 84.0126 76.0992 84.0126 77.4587C84.0126 78.7453 83.8426 80.2505 82.5803 81.4885ZM77.3366 75.468H75.9043V79.4979H77.3123C77.7493 79.4979 78.5746 79.4493 79.0844 78.9881C79.5943 78.5511 79.6185 77.8957 79.6185 77.5072C79.6185 77.0703 79.57 76.4876 79.133 76.0506C78.6475 75.5408 77.8706 75.468 77.3366 75.468ZM91.2946 88.2617V72.0693H97.8493C99.0631 72.0693 100.617 72.2635 101.806 73.5016C102.729 74.4484 103.19 75.8564 103.19 77.1431C103.19 78.5268 102.705 79.7407 101.903 80.5175C101.272 81.1244 100.423 81.4886 99.67 81.6342L104.744 88.2617H99.5243L95.4945 82.0469V88.2617H91.2946ZM96.2956 75.3224H95.4945V79.328H96.2956C96.9268 79.328 97.825 79.158 98.3348 78.6725C98.6504 78.3569 98.8689 77.8228 98.8689 77.313C98.8689 76.8275 98.6747 76.2934 98.3105 75.9535C97.9221 75.5651 97.2181 75.3224 96.2956 75.3224ZM28.7416 102.354C28.7416 103.219 30.4367 103.936 32.6318 104.057L96.1167 108.762C96.8509 108.815 97.5696 108.801 98.2414 108.727L159.867 104.034C162.031 103.871 163.523 103.154 163.523 102.354L163.515 85.8544L163.512 81.6807V81.6782C163.506 73.2239 163.503 68.9278 163.523 58.9809C163.523 58.0334 161.492 57.2659 158.984 57.2659V57.26H33.2958C30.7805 57.26 28.7416 58.0304 28.7416 58.9809V102.354ZM96.6173 101.843L96.6224 101.843C96.9442 101.866 97.2398 101.858 97.484 101.831L97.5991 101.818L156.583 97.3265L156.578 85.8592V85.8577L156.575 81.6864C156.57 74.8723 156.567 70.7542 156.576 64.2032H152.047V64.1973H35.6789V97.3269L96.6173 101.843Z" fill="white"/>
</svg>
