<svg width="49" height="48" viewBox="0 0 49 48" fill="none" xmlns="http://www.w3.org/2000/svg">
<g clip-path="url(#clip0_2019_274)">
<path d="M46.55 0H2.45C1.0974 0.00206897 0.00204167 1.11207 0 2.48276V45.5172C0.00204167 46.8879 1.0974 47.9979 2.45 48H46.55C47.9026 47.9979 48.998 46.8879 49 45.5172V2.48276C48.998 1.11207 47.9026 0.00206897 46.55 0ZM2.45 1.65517H46.55C47.0012 1.65517 47.3667 2.02552 47.3667 2.48276V6.62069H1.63333V2.48276C1.63333 2.02552 1.99879 1.65517 2.45 1.65517ZM46.55 46.3448H2.45C1.99879 46.3448 1.63333 45.9745 1.63333 45.5172V8.27586H47.3667V45.5172C47.3667 45.9745 47.0012 46.3448 46.55 46.3448Z" fill="#31A75D"/>
<path d="M10.6167 4.96554C11.0677 4.96554 11.4334 4.59501 11.4334 4.13795C11.4334 3.68089 11.0677 3.31036 10.6167 3.31036C10.1657 3.31036 9.80005 3.68089 9.80005 4.13795C9.80005 4.59501 10.1657 4.96554 10.6167 4.96554Z" fill="#31A75D"/>
<path d="M7.34999 4.96554C7.80102 4.96554 8.16666 4.59501 8.16666 4.13795C8.16666 3.68089 7.80102 3.31036 7.34999 3.31036C6.89896 3.31036 6.53333 3.68089 6.53333 4.13795C6.53333 4.59501 6.89896 4.96554 7.34999 4.96554Z" fill="#31A75D"/>
<path d="M4.08339 4.96554C4.53442 4.96554 4.90006 4.59501 4.90006 4.13795C4.90006 3.68089 4.53442 3.31036 4.08339 3.31036C3.63236 3.31036 3.26672 3.68089 3.26672 4.13795C3.26672 4.59501 3.63236 4.96554 4.08339 4.96554Z" fill="#31A75D"/>
<path d="M43.2834 11.5862H5.71669C5.26548 11.5862 4.90002 11.9565 4.90002 12.4138V35.5862C4.90002 36.0434 5.26548 36.4138 5.71669 36.4138H43.2834C43.7346 36.4138 44.1 36.0434 44.1 35.5862V12.4138C44.1 11.9565 43.7346 11.5862 43.2834 11.5862ZM42.4667 34.7586H6.53336V13.2414H42.4667V34.7586Z" fill="#31A75D"/>
<path d="M8.98329 23.1724H10.6166C11.0678 23.1724 11.4333 22.802 11.4333 22.3448C11.4333 21.8876 11.0678 21.5172 10.6166 21.5172H8.98329C8.53208 21.5172 8.16663 21.8876 8.16663 22.3448C8.16663 22.802 8.53208 23.1724 8.98329 23.1724Z" fill="#31A75D"/>
<path d="M25.3167 29.7931H40.0167C40.4679 29.7931 40.8333 29.4227 40.8333 28.9655C40.8333 28.7865 40.7762 28.6117 40.67 28.4689L35.77 21.8482C35.4995 21.4831 34.987 21.4086 34.6267 21.6827C34.5644 21.7293 34.5093 21.7851 34.4633 21.8482L33.0138 23.8065L30.917 20.2645C30.6852 19.8724 30.183 19.7451 29.7961 19.981C29.6807 20.0514 29.5848 20.1486 29.5164 20.2645L24.6164 28.5403C24.3847 28.9324 24.5102 29.4403 24.8961 29.6762C25.0227 29.7538 25.1687 29.7941 25.3167 29.7941V29.7931ZM35.1167 23.7238L38.3833 28.1379H35.5791L33.9213 25.3386L35.1167 23.7238ZM30.2167 22.2982L33.6742 28.1379H26.7591L30.2167 22.2982Z" fill="#31A75D"/>
<path d="M34.2999 19.8621C34.751 19.8621 35.1166 19.4916 35.1166 19.0345C35.1166 18.5774 34.751 18.2069 34.2999 18.2069C33.8489 18.2069 33.4833 18.5774 33.4833 19.0345C33.4833 19.4916 33.8489 19.8621 34.2999 19.8621Z" fill="#31A75D"/>
<path d="M17.15 28.1379H13.8833C13.4321 28.1379 13.0667 28.5083 13.0667 28.9655C13.0667 29.4228 13.4321 29.7931 13.8833 29.7931H17.15C17.6012 29.7931 17.9667 29.4228 17.9667 28.9655C17.9667 28.5083 17.6012 28.1379 17.15 28.1379Z" fill="#31A75D"/>
<path d="M13.0667 22.3448C13.0667 22.802 13.4321 23.1724 13.8833 23.1724H22.05C22.5012 23.1724 22.8667 22.802 22.8667 22.3448C22.8667 21.8876 22.5012 21.5172 22.05 21.5172H13.8833C13.4321 21.5172 13.0667 21.8876 13.0667 22.3448Z" fill="#31A75D"/>
<path d="M8.98329 26.4827H17.15C17.6012 26.4827 17.9666 26.1124 17.9666 25.6552C17.9666 25.1979 17.6012 24.8276 17.15 24.8276H8.98329C8.53208 24.8276 8.16663 25.1979 8.16663 25.6552C8.16663 26.1124 8.53208 26.4827 8.98329 26.4827Z" fill="#31A75D"/>
<path d="M22.05 24.8276H20.4166C19.9654 24.8276 19.6 25.1979 19.6 25.6552C19.6 26.1124 19.9654 26.4827 20.4166 26.4827H22.05C22.5012 26.4827 22.8666 26.1124 22.8666 25.6552C22.8666 25.1979 22.5012 24.8276 22.05 24.8276Z" fill="#31A75D"/>
<path d="M15.5167 38.069H5.71669C5.26548 38.069 4.90002 38.4393 4.90002 38.8966V42.2069C4.90002 42.6641 5.26548 43.0345 5.71669 43.0345H15.5167C15.9679 43.0345 16.3334 42.6641 16.3334 42.2069V38.8966C16.3334 38.4393 15.9679 38.069 15.5167 38.069ZM14.7 41.3793H6.53336V39.7241H14.7V41.3793Z" fill="#31A75D"/>
<path d="M29.4 38.069H19.6C19.1488 38.069 18.7833 38.4393 18.7833 38.8966V42.2069C18.7833 42.6641 19.1488 43.0345 19.6 43.0345H29.4C29.8512 43.0345 30.2167 42.6641 30.2167 42.2069V38.8966C30.2167 38.4393 29.8512 38.069 29.4 38.069ZM28.5833 41.3793H20.4167V39.7241H28.5833V41.3793Z" fill="#31A75D"/>
<path d="M43.2833 38.069H33.4833C33.0321 38.069 32.6666 38.4393 32.6666 38.8966V42.2069C32.6666 42.6641 33.0321 43.0345 33.4833 43.0345H43.2833C43.7345 43.0345 44.1 42.6641 44.1 42.2069V38.8966C44.1 38.4393 43.7345 38.069 43.2833 38.069ZM42.4666 41.3793H34.3V39.7241H42.4666V41.3793Z" fill="#31A75D"/>
<path d="M8.98329 19.8621H13.8833C14.3345 19.8621 14.7 19.4917 14.7 19.0345C14.7 18.5773 14.3345 18.2069 13.8833 18.2069H8.98329C8.53208 18.2069 8.16663 18.5773 8.16663 19.0345C8.16663 19.4917 8.53208 19.8621 8.98329 19.8621Z" fill="#31A75D"/>
</g>
<defs>
<clipPath id="clip0_2019_274">
<rect width="49" height="48" fill="white"/>
</clipPath>
</defs>
</svg>
