<svg width="50" height="48" viewBox="0 0 50 48" fill="none" xmlns="http://www.w3.org/2000/svg">
<g clip-path="url(#clip0_2019_235)">
<path d="M47.5 0H2.5C1.11979 0.00206897 0.00208333 1.11207 0 2.48276V45.5172C0.00208333 46.8879 1.11979 47.9979 2.5 48H47.5C48.8802 47.9979 49.9979 46.8879 50 45.5172V2.48276C49.9979 1.11207 48.8802 0.00206897 47.5 0ZM2.5 1.65517H47.5C47.9604 1.65517 48.3333 2.02552 48.3333 2.48276V6.62069H1.66667V2.48276C1.66667 2.02552 2.03958 1.65517 2.5 1.65517ZM47.5 46.3448H2.5C2.03958 46.3448 1.66667 45.9745 1.66667 45.5172V8.27586H48.3333V45.5172C48.3333 45.9745 47.9604 46.3448 47.5 46.3448Z" fill="#31A75D"/>
<path d="M10.8333 4.96554C11.2936 4.96554 11.6667 4.59501 11.6667 4.13795C11.6667 3.68089 11.2936 3.31036 10.8333 3.31036C10.3731 3.31036 10 3.68089 10 4.13795C10 4.59501 10.3731 4.96554 10.8333 4.96554Z" fill="#31A75D"/>
<path d="M7.50002 4.96554C7.96026 4.96554 8.33335 4.59501 8.33335 4.13795C8.33335 3.68089 7.96026 3.31036 7.50002 3.31036C7.03978 3.31036 6.66669 3.68089 6.66669 4.13795C6.66669 4.59501 7.03978 4.96554 7.50002 4.96554Z" fill="#31A75D"/>
<path d="M4.16665 4.96554C4.62688 4.96554 4.99998 4.59501 4.99998 4.13795C4.99998 3.68089 4.62688 3.31036 4.16665 3.31036C3.70641 3.31036 3.33331 3.68089 3.33331 4.13795C3.33331 4.59501 3.70641 4.96554 4.16665 4.96554Z" fill="#31A75D"/>
<path d="M22.5 12.4138H5.83333C5.37292 12.4138 5 12.7842 5 13.2414V24.8276C5 25.2849 5.37292 25.6552 5.83333 25.6552H22.5C22.9604 25.6552 23.3333 25.2849 23.3333 24.8276V13.2414C23.3333 12.7842 22.9604 12.4138 22.5 12.4138ZM21.6667 14.069V22.83L18.0896 19.2776C17.7646 18.9549 17.2365 18.9549 16.9115 19.2776L14.4958 21.6766L11.501 17.7114C11.225 17.3462 10.7021 17.2717 10.3344 17.5459C10.2708 17.5924 10.2146 17.6483 10.1677 17.7114L6.66771 22.3459V14.07H21.6667V14.069ZM14.1667 24H7.5L10.8333 19.5859L14.1667 24ZM15.5052 23.0131L17.5 21.0321L20.4885 24H16.25L15.5052 23.0131Z" fill="#31A75D"/>
<path d="M44.1667 12.4138H27.5C27.0396 12.4138 26.6667 12.7842 26.6667 13.2414V24.8276C26.6667 25.2849 27.0396 25.6552 27.5 25.6552H44.1667C44.6271 25.6552 45 25.2849 45 24.8276V13.2414C45 12.7842 44.6271 12.4138 44.1667 12.4138ZM43.3334 14.069V22.83L39.7563 19.2776C39.4313 18.9549 38.9031 18.9549 38.5781 19.2776L36.1625 21.6766L33.1677 17.7114C32.8917 17.3462 32.3688 17.2717 32.0011 17.5459C31.9375 17.5924 31.8813 17.6483 31.8344 17.7114L28.3344 22.3459V14.07H43.3344L43.3334 14.069ZM35.8334 24H29.1667L32.5 19.5859L35.8334 24ZM37.1719 23.0131L39.1667 21.0321L42.1552 24H37.9167L37.1719 23.0131Z" fill="#31A75D"/>
<path d="M15 17.3793C15.4603 17.3793 15.8334 17.0088 15.8334 16.5517C15.8334 16.0946 15.4603 15.7241 15 15.7241C14.5398 15.7241 14.1667 16.0946 14.1667 16.5517C14.1667 17.0088 14.5398 17.3793 15 17.3793Z" fill="#31A75D"/>
<path d="M36.6666 17.3793C37.1269 17.3793 37.5 17.0088 37.5 16.5517C37.5 16.0946 37.1269 15.7241 36.6666 15.7241C36.2064 15.7241 35.8333 16.0946 35.8333 16.5517C35.8333 17.0088 36.2064 17.3793 36.6666 17.3793Z" fill="#31A75D"/>
<path d="M22.5 28.9655H5.83333C5.37292 28.9655 5 29.3359 5 29.7931V41.3793C5 41.8365 5.37292 42.2069 5.83333 42.2069H22.5C22.9604 42.2069 23.3333 41.8365 23.3333 41.3793V29.7931C23.3333 29.3359 22.9604 28.9655 22.5 28.9655ZM21.6667 30.6207V39.3817L18.0896 35.8293C17.7646 35.5065 17.2365 35.5065 16.9115 35.8293L14.4958 38.2283L11.501 34.2631C11.225 33.8979 10.7021 33.8234 10.3344 34.0976C10.2708 34.1441 10.2146 34.2 10.1677 34.2631L6.66771 38.8976V30.6217H21.6667V30.6207ZM14.1667 40.5517H7.5L10.8333 36.1376L14.1667 40.5517ZM15.5052 39.5648L17.5 37.5838L20.4885 40.5517H16.25L15.5052 39.5648Z" fill="#31A75D"/>
<path d="M44.1667 28.9655H27.5C27.0396 28.9655 26.6667 29.3359 26.6667 29.7931V41.3793C26.6667 41.8365 27.0396 42.2069 27.5 42.2069H44.1667C44.6271 42.2069 45 41.8365 45 41.3793V29.7931C45 29.3359 44.6271 28.9655 44.1667 28.9655ZM43.3334 30.6207V39.3817L39.7563 35.8293C39.4313 35.5065 38.9031 35.5065 38.5781 35.8293L36.1625 38.2283L33.1677 34.2631C32.8917 33.8979 32.3688 33.8234 32.0011 34.0976C31.9375 34.1441 31.8813 34.2 31.8344 34.2631L28.3344 38.8976V30.6217H43.3344L43.3334 30.6207ZM35.8334 40.5517H29.1667L32.5 36.1376L35.8334 40.5517ZM37.1719 39.5648L39.1667 37.5838L42.1552 40.5517H37.9167L37.1719 39.5648Z" fill="#31A75D"/>
<path d="M15 33.9311C15.4603 33.9311 15.8334 33.5605 15.8334 33.1035C15.8334 32.6464 15.4603 32.2759 15 32.2759C14.5398 32.2759 14.1667 32.6464 14.1667 33.1035C14.1667 33.5605 14.5398 33.9311 15 33.9311Z" fill="#31A75D"/>
<path d="M36.6666 33.9311C37.1269 33.9311 37.5 33.5605 37.5 33.1035C37.5 32.6464 37.1269 32.2759 36.6666 32.2759C36.2064 32.2759 35.8333 32.6464 35.8333 33.1035C35.8333 33.5605 36.2064 33.9311 36.6666 33.9311Z" fill="#31A75D"/>
</g>
<defs>
<clipPath id="clip0_2019_235">
<rect width="50" height="48" fill="white"/>
</clipPath>
</defs>
</svg>
