<svg width="170" height="70" viewBox="0 0 170 70" fill="none" xmlns="http://www.w3.org/2000/svg">
<g clip-path="url(#clip0_982_429)">
<path d="M48.2385 32.8646C44.4534 28.3073 39.4191 24.3791 34.7666 22.3587C34.2681 22.1441 33.7052 22.1366 33.2012 22.3379C32.6972 22.5393 32.2932 22.9331 32.0775 23.4331C31.8661 23.9327 31.8595 24.4959 32.0592 25.0003C32.2588 25.5048 32.6486 25.9096 33.1437 26.1269C37.1749 27.87 41.7549 31.4654 45.0968 35.4934C47.9562 38.9368 51.3392 44.3672 51.224 50.6691C51.0837 57.9772 45.6946 64.4741 38.935 65.474C38.0953 65.599 37.2477 65.6631 36.3989 65.6657C35.8551 65.6657 35.3336 65.8827 34.9491 66.269C34.5646 66.6554 34.3486 67.1793 34.3486 67.7257C34.3486 68.272 34.5646 68.796 34.9491 69.1823C35.3336 69.5686 35.8551 69.7856 36.3989 69.7856C37.4464 69.7818 38.4921 69.7013 39.528 69.5448C48.2022 68.2771 55.1416 60.0166 55.3135 50.7563C55.4539 43.1819 51.5442 36.8467 48.2385 32.8646Z" fill="#2A769E"/>
<path d="M34.5235 55.7064C35.085 53.0713 35.6717 48.0338 33.2997 43.8901C32.097 41.7797 30.2013 40.1551 27.9374 39.2948C25.6804 38.4229 23.1724 38.4798 20.957 39.4533C17.7648 40.8794 16.4211 43.2183 15.7761 45.1578C13.3835 44.6016 10.6772 44.73 7.73265 47.0054C7.5158 47.1736 7.33468 47.3837 7.2 47.6233C7.06531 47.863 6.97978 48.1273 6.94847 48.4007C6.91715 48.6741 6.94069 48.9511 7.01768 49.2152C7.09467 49.4793 7.22355 49.7253 7.39672 49.9385C8.10486 50.8053 9.38865 50.9004 10.2797 50.2237C12.4341 48.5853 14.1343 48.7723 16.5063 49.6913L17.5787 50.1065C17.7273 50.1638 17.8865 50.1877 18.0453 50.1765C18.204 50.1652 18.3584 50.1192 18.4975 50.0415C18.6366 49.9639 18.757 49.8565 18.8503 49.727C18.9437 49.5975 19.0076 49.449 19.0376 49.292L19.2521 48.1574C19.7252 45.6649 20.375 44.2166 22.6193 43.2135C25.108 42.1043 28.2402 43.307 29.7543 45.9501C30.9892 48.1067 31.2683 51.3536 30.5239 54.8539C29.852 57.9994 28.3948 61.8737 26.3208 63.3093C26.2703 63.3442 26.2341 63.3695 26.2104 63.3885L26.1868 63.4076C23.935 64.9432 21.2717 65.7545 18.5503 65.7337C18.0456 65.7337 17.5409 65.71 17.0425 65.6624C9.76401 65.0048 4.19513 58.6253 4.09261 50.8211C3.99483 43.7538 8.3225 37.7197 10.909 34.7534C17.563 27.133 23.0167 25.1983 26.4202 24.9162C26.4323 24.9154 26.4444 24.9154 26.4565 24.9162H26.4959C26.5516 24.9099 26.6042 24.9019 26.6536 24.8924L26.7056 24.8798C26.7545 24.8687 26.8018 24.856 26.8492 24.8417C26.8697 24.8417 26.887 24.829 26.9075 24.8227C26.928 24.8164 26.9943 24.7926 27.0368 24.7736C27.0794 24.7546 27.0794 24.7546 27.0999 24.7451C27.1204 24.7356 27.1772 24.7102 27.2151 24.6896C27.2529 24.669 27.2624 24.6611 27.286 24.6468C27.3097 24.6326 27.3507 24.6104 27.3822 24.5882L27.4658 24.528C27.4895 24.509 27.5147 24.4931 27.5368 24.4741C27.5589 24.4551 27.6046 24.4155 27.6377 24.3854L27.6803 24.3457C27.7197 24.3061 27.7576 24.2665 27.7939 24.2237L27.8112 24.2047C28.1254 23.8344 28.2977 23.3635 28.297 22.8768C28.2957 22.411 28.1374 21.9594 27.8478 21.5956C27.5582 21.2319 27.1545 20.9775 26.7025 20.8739H26.693C26.6347 20.8612 26.5763 20.8517 26.5164 20.8438H26.4911C26.4328 20.8438 26.3744 20.8327 26.3161 20.8311H26.2514C24.0714 20.829 21.9813 19.9581 20.4396 18.4095C18.898 16.8608 18.0307 14.761 18.0282 12.5706C18.0307 10.38 18.8979 8.27983 20.4394 6.73068C21.981 5.18154 24.0711 4.30991 26.2514 4.30697C28.4317 4.30991 30.5219 5.18154 32.0634 6.73068C33.605 8.27983 34.4721 10.38 34.4746 12.5706C34.4746 13.117 34.6906 13.6409 35.0751 14.0272C35.4596 14.4136 35.9811 14.6306 36.5249 14.6306C37.0687 14.6306 37.5902 14.4136 37.9747 14.0272C38.3592 13.6409 38.5752 13.117 38.5752 12.5706C38.5719 9.29012 37.2734 6.14491 34.9648 3.82509C32.6562 1.50527 29.526 0.200308 26.2609 0.196533C22.9958 0.200308 19.8656 1.50527 17.5569 3.82509C15.2483 6.14491 13.9499 9.29012 13.9466 12.5706C13.9468 14.5831 14.4361 16.565 15.372 18.3443C16.3079 20.1235 17.662 21.6462 19.3167 22.7802C14.6736 25.0255 10.6977 28.7905 7.8399 32.0643C4.86541 35.4743 -0.107307 42.4577 0.00782371 50.8972C0.133995 60.7835 7.30209 68.8998 16.675 69.7459C17.2901 69.8046 17.9241 69.8331 18.5566 69.8331C22.1795 69.8601 25.7207 68.7524 28.6881 66.6639C28.748 66.6225 28.8054 66.5775 28.86 66.5292C30.4387 65.3503 33.0773 62.4473 34.5235 55.7064Z" fill="#2A769E"/>
</g>
<path d="M82.3877 31.0833V22.4983H75.8993V31.0833H71.7343V11.4766H75.8993V19.2116H82.3877V11.4766H86.5527V31.0833H82.3877ZM103.296 23.2349C103.296 23.4238 103.268 23.9433 103.211 24.7933H93.8328C93.965 26.1533 94.3334 27.1166 94.9378 27.6833C95.5422 28.2499 96.3639 28.5333 97.4028 28.5333C98.045 28.5333 98.6495 28.4294 99.2161 28.2216C99.7828 28.0138 100.397 27.6833 101.058 27.2299L102.729 29.4966C101.048 30.8566 99.15 31.5366 97.0345 31.5366C94.6734 31.5366 92.86 30.8283 91.5945 29.4116C90.3289 27.9949 89.6961 26.0777 89.6961 23.6599C89.6961 22.1299 89.9606 20.7605 90.4895 19.5516C91.0372 18.3238 91.8211 17.3605 92.8411 16.6616C93.88 15.9627 95.1078 15.6133 96.5245 15.6133C98.6589 15.6133 100.321 16.2838 101.511 17.6249C102.701 18.966 103.296 20.836 103.296 23.2349ZM99.3011 22.1016C99.3011 19.6083 98.4039 18.3616 96.6095 18.3616C95.7784 18.3616 95.1267 18.6733 94.6545 19.2966C94.2011 19.901 93.9272 20.8927 93.8328 22.2716H99.3011V22.1016ZM113.972 15.6416C114.425 15.6416 114.925 15.7171 115.473 15.8683L114.793 19.7499C114.264 19.6177 113.82 19.5516 113.462 19.5516C112.574 19.5516 111.884 19.8633 111.393 20.4866C110.902 21.1099 110.515 22.0544 110.232 23.3199V31.0833H106.208V16.0666H109.693L110.062 18.9849C110.42 17.9271 110.94 17.1055 111.62 16.5199C112.319 15.9344 113.103 15.6416 113.972 15.6416ZM127.949 26.9183C127.949 27.5038 128.034 27.9383 128.204 28.2216C128.374 28.486 128.657 28.6844 129.054 28.8166L128.204 31.4799C127.316 31.4044 126.589 31.1966 126.022 30.8566C125.474 30.5166 125.049 29.9877 124.747 29.2699C123.765 30.781 122.263 31.5366 120.242 31.5366C118.75 31.5366 117.56 31.1116 116.672 30.2616C115.803 29.3927 115.369 28.2688 115.369 26.8899C115.369 25.2466 115.964 23.9905 117.154 23.1216C118.344 22.2527 120.053 21.8183 122.282 21.8183H124.01V21.0816C124.01 20.156 123.802 19.5138 123.387 19.1549C122.971 18.796 122.282 18.6166 121.319 18.6166C120.261 18.6166 118.939 18.881 117.352 19.4099L116.445 16.7183C118.315 15.9816 120.166 15.6133 121.999 15.6133C124.039 15.6133 125.54 16.0571 126.504 16.9449C127.467 17.8138 127.949 19.1171 127.949 20.8549V26.9183ZM121.347 28.6466C122.48 28.6466 123.368 28.0894 124.01 26.9749V24.1133H122.679C120.506 24.1133 119.42 24.9255 119.42 26.5499C119.42 27.211 119.581 27.7305 119.902 28.1083C120.242 28.4671 120.724 28.6466 121.347 28.6466ZM71.7343 59.0833V39.4766H83.1243L82.671 42.5083H75.8993V48.0616H81.7927V51.0933H75.8993V59.0833H71.7343ZM97.1812 51.2349C97.1812 51.4238 97.1529 51.9433 97.0962 52.7933H87.7179C87.8501 54.1533 88.2184 55.1166 88.8229 55.6833C89.4273 56.2499 90.249 56.5333 91.2879 56.5333C91.9301 56.5333 92.5346 56.4294 93.1012 56.2216C93.6679 56.0138 94.2818 55.6833 94.9429 55.2299L96.6146 57.4966C94.9334 58.8566 93.0351 59.5366 90.9196 59.5366C88.5584 59.5366 86.7451 58.8283 85.4796 57.4116C84.214 55.9949 83.5812 54.0777 83.5812 51.6599C83.5812 50.1299 83.8457 48.7605 84.3746 47.5516C84.9223 46.3238 85.7062 45.3605 86.7262 44.6616C87.7651 43.9627 88.9929 43.6133 90.4096 43.6133C92.544 43.6133 94.2062 44.2838 95.3962 45.6249C96.5862 46.966 97.1812 48.836 97.1812 51.2349ZM93.1862 50.1016C93.1862 47.6083 92.289 46.3616 90.4946 46.3616C89.6634 46.3616 89.0118 46.6733 88.5396 47.2966C88.0862 47.901 87.8123 48.8927 87.7179 50.2716H93.1862V50.1016ZM107.857 43.6416C108.31 43.6416 108.811 43.7171 109.358 43.8683L108.678 47.7499C108.149 47.6177 107.706 47.5516 107.347 47.5516C106.459 47.5516 105.769 47.8633 105.278 48.4866C104.787 49.1099 104.4 50.0544 104.117 51.3199V59.0833H100.093V44.0666H103.578L103.947 46.9849C104.306 45.9271 104.825 45.1055 105.505 44.5199C106.204 43.9344 106.988 43.6416 107.857 43.6416ZM120.336 58.3749C119.789 58.7527 119.165 59.036 118.466 59.2249C117.786 59.4327 117.106 59.5366 116.426 59.5366C114.878 59.5177 113.706 59.0738 112.913 58.2049C112.12 57.336 111.723 56.061 111.723 54.3799V46.8999H109.485V44.0666H111.723V40.7799L115.746 40.2983V44.0666H119.203L118.806 46.8999H115.746V54.2949C115.746 55.0127 115.869 55.5321 116.115 55.8533C116.36 56.1744 116.738 56.3349 117.248 56.3349C117.758 56.3349 118.325 56.1649 118.948 55.8249L120.336 58.3749ZM126.141 44.0666V59.0833H122.118V44.0666H126.141ZM124.101 36.3316C124.819 36.3316 125.405 36.5583 125.858 37.0116C126.33 37.446 126.566 38.0033 126.566 38.6833C126.566 39.3633 126.33 39.9299 125.858 40.3833C125.405 40.8177 124.819 41.0349 124.101 41.0349C123.384 41.0349 122.798 40.8177 122.345 40.3833C121.891 39.9299 121.665 39.3633 121.665 38.6833C121.665 38.0033 121.891 37.446 122.345 37.0116C122.798 36.5583 123.384 36.3316 124.101 36.3316ZM133.855 59.5366C132.627 59.5366 131.673 59.1871 130.993 58.4883C130.313 57.7705 129.973 56.7599 129.973 55.4566V38.0882L133.996 37.6349V55.3433C133.996 56.0044 134.27 56.3349 134.818 56.3349C135.12 56.3349 135.385 56.2783 135.611 56.1649L136.433 59.0266C135.658 59.3666 134.799 59.5366 133.855 59.5366ZM142.522 44.0666V59.0833H138.498V44.0666H142.522ZM140.482 36.3316C141.199 36.3316 141.785 36.5583 142.238 37.0116C142.711 37.446 142.947 38.0033 142.947 38.6833C142.947 39.3633 142.711 39.9299 142.238 40.3833C141.785 40.8177 141.199 41.0349 140.482 41.0349C139.764 41.0349 139.178 40.8177 138.725 40.3833C138.272 39.9299 138.045 39.3633 138.045 38.6833C138.045 38.0033 138.272 37.446 138.725 37.0116C139.178 36.5583 139.764 36.3316 140.482 36.3316ZM155.476 58.3749C154.929 58.7527 154.305 59.036 153.606 59.2249C152.926 59.4327 152.246 59.5366 151.566 59.5366C150.018 59.5177 148.846 59.0738 148.053 58.2049C147.26 57.336 146.863 56.061 146.863 54.3799V46.8999H144.625V44.0666H146.863V40.7799L150.886 40.2983V44.0666H154.343L153.946 46.8999H150.886V54.2949C150.886 55.0127 151.009 55.5321 151.255 55.8533C151.5 56.1744 151.878 56.3349 152.388 56.3349C152.898 56.3349 153.465 56.1649 154.088 55.8249L155.476 58.3749ZM164.855 59.1116C164.25 61.0194 163.296 62.4927 161.993 63.5316C160.709 64.5705 158.961 65.1655 156.751 65.3166L156.326 62.4266C157.762 62.2377 158.81 61.8977 159.471 61.4066C160.151 60.9155 160.709 60.141 161.143 59.0833H159.755L155.08 44.0666H159.358L162.361 56.4766L165.535 44.0666H169.7L164.855 59.1116Z" fill="black"/>
<defs>
<clipPath id="clip0_982_429">
<rect width="55.4167" height="69.6667" fill="white" transform="translate(0 0.166748)"/>
</clipPath>
</defs>
</svg>
