<svg width="50" height="48" viewBox="0 0 50 48" fill="none" xmlns="http://www.w3.org/2000/svg">
<g clip-path="url(#clip0_2019_248)">
<path d="M47.5 0H2.5C1.11979 0.00206897 0.00208333 1.11207 0 2.48276V45.5172C0.00208333 46.8879 1.11979 47.9979 2.5 48H47.5C48.8802 47.9979 49.9979 46.8879 50 45.5172V2.48276C49.9979 1.11207 48.8802 0.00206897 47.5 0ZM2.5 1.65517H47.5C47.9604 1.65517 48.3333 2.02552 48.3333 2.48276V6.62069H1.66667V2.48276C1.66667 2.02552 2.03958 1.65517 2.5 1.65517ZM47.5 46.3448H2.5C2.03958 46.3448 1.66667 45.9745 1.66667 45.5172V8.27586H48.3333V45.5172C48.3333 45.9745 47.9604 46.3448 47.5 46.3448Z" fill="#31A75D"/>
<path d="M10.8333 4.96554C11.2936 4.96554 11.6667 4.59501 11.6667 4.13795C11.6667 3.68089 11.2936 3.31036 10.8333 3.31036C10.3731 3.31036 10 3.68089 10 4.13795C10 4.59501 10.3731 4.96554 10.8333 4.96554Z" fill="#31A75D"/>
<path d="M7.49996 4.96554C7.9602 4.96554 8.33329 4.59501 8.33329 4.13795C8.33329 3.68089 7.9602 3.31036 7.49996 3.31036C7.03972 3.31036 6.66663 3.68089 6.66663 4.13795C6.66663 4.59501 7.03972 4.96554 7.49996 4.96554Z" fill="#31A75D"/>
<path d="M4.16671 4.96554C4.62694 4.96554 5.00004 4.59501 5.00004 4.13795C5.00004 3.68089 4.62694 3.31036 4.16671 3.31036C3.70647 3.31036 3.33337 3.68089 3.33337 4.13795C3.33337 4.59501 3.70647 4.96554 4.16671 4.96554Z" fill="#31A75D"/>
<path d="M5.83333 16.5517H7.5C7.96042 16.5517 8.33333 16.1814 8.33333 15.7241C8.33333 15.2669 7.96042 14.8965 7.5 14.8965H5.83333C5.37292 14.8965 5 15.2669 5 15.7241C5 16.1814 5.37292 16.5517 5.83333 16.5517Z" fill="#31A75D"/>
<path d="M26.6667 15.7241C26.6667 15.2669 26.2937 14.8965 25.8333 14.8965H10.8333C10.3729 14.8965 10 15.2669 10 15.7241C10 16.1814 10.3729 16.5517 10.8333 16.5517H25.8333C26.2937 16.5517 26.6667 16.1814 26.6667 15.7241Z" fill="#31A75D"/>
<path d="M5.83333 19.8621H17.5C17.9604 19.8621 18.3333 19.4917 18.3333 19.0345C18.3333 18.5773 17.9604 18.2069 17.5 18.2069H5.83333C5.37292 18.2069 5 18.5773 5 19.0345C5 19.4917 5.37292 19.8621 5.83333 19.8621Z" fill="#31A75D"/>
<path d="M20.8333 19.8621H35.8333C36.2937 19.8621 36.6667 19.4917 36.6667 19.0345C36.6667 18.5773 36.2937 18.2069 35.8333 18.2069H20.8333C20.3729 18.2069 20 18.5773 20 19.0345C20 19.4917 20.3729 19.8621 20.8333 19.8621Z" fill="#31A75D"/>
<path d="M5.83333 13.2414H25.8333C26.2937 13.2414 26.6667 12.871 26.6667 12.4138C26.6667 11.9565 26.2937 11.5862 25.8333 11.5862H5.83333C5.37292 11.5862 5 11.9565 5 12.4138C5 12.871 5.37292 13.2414 5.83333 13.2414Z" fill="#31A75D"/>
<path d="M44.1667 14.8965H29.1667C28.7063 14.8965 28.3334 15.2669 28.3334 15.7241C28.3334 16.1814 28.7063 16.5517 29.1667 16.5517H44.1667C44.6271 16.5517 45 16.1814 45 15.7241C45 15.2669 44.6271 14.8965 44.1667 14.8965Z" fill="#31A75D"/>
<path d="M44.1667 18.2069H39.1667C38.7063 18.2069 38.3334 18.5773 38.3334 19.0345C38.3334 19.4917 38.7063 19.8621 39.1667 19.8621H44.1667C44.6271 19.8621 45 19.4917 45 19.0345C45 18.5773 44.6271 18.2069 44.1667 18.2069Z" fill="#31A75D"/>
<path d="M5.83333 28.138H7.5C7.96042 28.138 8.33333 27.7676 8.33333 27.3104C8.33333 26.8531 7.96042 26.4828 7.5 26.4828H5.83333C5.37292 26.4828 5 26.8531 5 27.3104C5 27.7676 5.37292 28.138 5.83333 28.138Z" fill="#31A75D"/>
<path d="M26.6667 27.3104C26.6667 26.8531 26.2937 26.4828 25.8333 26.4828H10.8333C10.3729 26.4828 10 26.8531 10 27.3104C10 27.7676 10.3729 28.138 10.8333 28.138H25.8333C26.2937 28.138 26.6667 27.7676 26.6667 27.3104Z" fill="#31A75D"/>
<path d="M5.83333 31.4483H17.5C17.9604 31.4483 18.3333 31.0779 18.3333 30.6207C18.3333 30.1634 17.9604 29.7931 17.5 29.7931H5.83333C5.37292 29.7931 5 30.1634 5 30.6207C5 31.0779 5.37292 31.4483 5.83333 31.4483Z" fill="#31A75D"/>
<path d="M20.8333 31.4483H35.8333C36.2937 31.4483 36.6667 31.0779 36.6667 30.6207C36.6667 30.1634 36.2937 29.7931 35.8333 29.7931H20.8333C20.3729 29.7931 20 30.1634 20 30.6207C20 31.0779 20.3729 31.4483 20.8333 31.4483Z" fill="#31A75D"/>
<path d="M5.83333 24.8276H25.8333C26.2937 24.8276 26.6667 24.4573 26.6667 24C26.6667 23.5428 26.2937 23.1724 25.8333 23.1724H5.83333C5.37292 23.1724 5 23.5428 5 24C5 24.4573 5.37292 24.8276 5.83333 24.8276Z" fill="#31A75D"/>
<path d="M44.1667 26.4828H29.1667C28.7063 26.4828 28.3334 26.8531 28.3334 27.3104C28.3334 27.7676 28.7063 28.138 29.1667 28.138H44.1667C44.6271 28.138 45 27.7676 45 27.3104C45 26.8531 44.6271 26.4828 44.1667 26.4828Z" fill="#31A75D"/>
<path d="M44.1667 29.7931H39.1667C38.7063 29.7931 38.3334 30.1634 38.3334 30.6207C38.3334 31.0779 38.7063 31.4483 39.1667 31.4483H44.1667C44.6271 31.4483 45 31.0779 45 30.6207C45 30.1634 44.6271 29.7931 44.1667 29.7931Z" fill="#31A75D"/>
<path d="M5.83333 39.7241H7.5C7.96042 39.7241 8.33333 39.3538 8.33333 38.8966C8.33333 38.4393 7.96042 38.069 7.5 38.069H5.83333C5.37292 38.069 5 38.4393 5 38.8966C5 39.3538 5.37292 39.7241 5.83333 39.7241Z" fill="#31A75D"/>
<path d="M25.8333 38.069H10.8333C10.3729 38.069 10 38.4393 10 38.8966C10 39.3538 10.3729 39.7241 10.8333 39.7241H25.8333C26.2937 39.7241 26.6667 39.3538 26.6667 38.8966C26.6667 38.4393 26.2937 38.069 25.8333 38.069Z" fill="#31A75D"/>
<path d="M17.5 41.3793H5.83333C5.37292 41.3793 5 41.7497 5 42.2069C5 42.6642 5.37292 43.0345 5.83333 43.0345H17.5C17.9604 43.0345 18.3333 42.6642 18.3333 42.2069C18.3333 41.7497 17.9604 41.3793 17.5 41.3793Z" fill="#31A75D"/>
<path d="M35.8333 41.3793H20.8333C20.3729 41.3793 20 41.7497 20 42.2069C20 42.6642 20.3729 43.0345 20.8333 43.0345H35.8333C36.2937 43.0345 36.6667 42.6642 36.6667 42.2069C36.6667 41.7497 36.2937 41.3793 35.8333 41.3793Z" fill="#31A75D"/>
<path d="M5.83333 36.4138H25.8333C26.2937 36.4138 26.6667 36.0434 26.6667 35.5862C26.6667 35.129 26.2937 34.7586 25.8333 34.7586H5.83333C5.37292 34.7586 5 35.129 5 35.5862C5 36.0434 5.37292 36.4138 5.83333 36.4138Z" fill="#31A75D"/>
<path d="M44.1667 38.069H29.1667C28.7063 38.069 28.3334 38.4393 28.3334 38.8966C28.3334 39.3538 28.7063 39.7241 29.1667 39.7241H44.1667C44.6271 39.7241 45 39.3538 45 38.8966C45 38.4393 44.6271 38.069 44.1667 38.069Z" fill="#31A75D"/>
<path d="M44.1667 41.3793H39.1667C38.7063 41.3793 38.3334 41.7497 38.3334 42.2069C38.3334 42.6642 38.7063 43.0345 39.1667 43.0345H44.1667C44.6271 43.0345 45 42.6642 45 42.2069C45 41.7497 44.6271 41.3793 44.1667 41.3793Z" fill="#31A75D"/>
</g>
<defs>
<clipPath id="clip0_2019_248">
<rect width="50" height="48" fill="white"/>
</clipPath>
</defs>
</svg>
