<svg width="243" height="97" viewBox="0 0 243 97" fill="none" xmlns="http://www.w3.org/2000/svg">
<path d="M13.2068 91.1151C13.04 91.4924 12.8167 91.8238 12.5266 92.106C12.2398 92.3882 11.9031 92.6113 11.5196 92.7753C11.1362 92.9361 10.7227 93.0181 10.2859 93.0181H9.36899C8.9322 93.0181 8.51874 92.9361 8.13197 92.7753C7.74519 92.6146 7.40842 92.3882 7.11834 92.106C6.83159 91.8238 6.60486 91.4924 6.43814 91.1151C6.27143 90.7378 6.19141 90.3309 6.19141 89.9011V83.0797C6.19141 82.6499 6.27476 82.243 6.43814 81.8657C6.60152 81.4884 6.82826 81.157 7.11834 80.8748C7.40509 80.5926 7.74519 80.3695 8.13197 80.2054C8.51874 80.0447 8.9322 79.9626 9.36899 79.9626H10.2859C10.7227 79.9626 11.1362 80.0447 11.5196 80.2054C11.9031 80.3695 12.2398 80.5926 12.5266 80.8748C12.8133 81.157 13.04 81.4884 13.2068 81.8657C13.3701 82.243 13.4535 82.6499 13.4535 83.0797V89.9011C13.4535 90.3309 13.3701 90.7378 13.2068 91.1151ZM12.2932 83.0797C12.2932 82.7975 12.2398 82.5317 12.1298 82.2857C12.0198 82.0396 11.873 81.8263 11.6897 81.6426C11.5029 81.4588 11.2862 81.3145 11.0361 81.2095C10.7861 81.1045 10.5193 81.0487 10.2292 81.0487H9.419C9.13225 81.0487 8.86218 81.1012 8.6121 81.2095C8.36203 81.3145 8.1453 81.4588 7.95525 81.6426C7.76519 81.8263 7.61848 82.0396 7.50845 82.2857C7.39842 82.5317 7.34507 82.7942 7.34507 83.0797V89.9011C7.34507 90.1833 7.39842 90.449 7.50845 90.6951C7.61848 90.9412 7.76519 91.1545 7.95525 91.3415C8.1453 91.5285 8.36203 91.6729 8.6121 91.7812C8.86218 91.8861 9.12892 91.9419 9.419 91.9419H10.2292C10.516 91.9419 10.7861 91.8894 11.0361 91.7812C11.2862 91.6762 11.5029 91.5285 11.6897 91.3415C11.8764 91.1545 12.0231 90.9412 12.1298 90.6951C12.2365 90.449 12.2932 90.1865 12.2932 89.9011V83.0797Z" fill="#606161"/>
<path d="M21.4289 91.3899C21.2888 91.7147 21.0954 91.9969 20.8487 92.2397C20.6019 92.4825 20.3152 92.6728 19.9851 92.8106C19.655 92.9484 19.3049 93.0173 18.9315 93.0173H18.6514C18.2379 93.0173 17.8545 92.9353 17.4977 92.7679C17.1409 92.6006 16.8409 92.3709 16.5875 92.0789V96.4723H15.4805V83.7679H15.8506L16.4541 84.6899C16.7075 84.3519 17.0209 84.0862 17.4044 83.8893C17.7845 83.6924 18.2013 83.594 18.6514 83.594H18.9315C19.3049 83.594 19.655 83.6629 19.9851 83.8007C20.3152 83.9385 20.6019 84.1288 20.8487 84.3716C21.0954 84.6144 21.2888 84.8966 21.4289 85.2214C21.5689 85.5462 21.6389 85.8908 21.6389 86.2582V90.3498C21.6389 90.7173 21.5689 91.0618 21.4289 91.3866V91.3899ZM20.5319 86.1992C20.5319 85.9794 20.4886 85.7759 20.4052 85.5823C20.3219 85.392 20.2085 85.2247 20.0618 85.0803C19.9184 84.9392 19.7484 84.8277 19.5516 84.7424C19.3549 84.6604 19.1482 84.6177 18.9248 84.6177H18.1879C17.9645 84.6177 17.7578 84.6604 17.5611 84.7424C17.3643 84.8244 17.1976 84.936 17.0509 85.0803C16.9075 85.2214 16.7942 85.3888 16.7075 85.5823C16.6241 85.7726 16.5808 85.9794 16.5808 86.1992V90.4154C16.5808 90.6352 16.6241 90.8387 16.7075 91.0322C16.7908 91.2258 16.9042 91.3899 17.0509 91.5342C17.1943 91.6753 17.3643 91.7869 17.5611 91.8722C17.7578 91.9575 17.9645 91.9969 18.1879 91.9969H18.9248C19.1482 91.9969 19.3549 91.9542 19.5516 91.8722C19.745 91.7902 19.9151 91.6786 20.0618 91.5342C20.2085 91.3899 20.3185 91.2258 20.4052 91.0322C20.4886 90.8419 20.5319 90.6352 20.5319 90.4154V86.1992Z" fill="#606161"/>
<path d="M29.4339 91.391C29.2939 91.7158 29.1005 91.998 28.8537 92.2408C28.607 92.4836 28.3202 92.6739 27.9902 92.8117C27.6601 92.9495 27.31 93.0184 26.9365 93.0184H26.1996C25.8262 93.0184 25.4761 92.9495 25.146 92.8117C24.8159 92.6739 24.5292 92.4836 24.2824 92.2408C24.0357 91.998 23.8423 91.7158 23.7022 91.391C23.5622 91.0662 23.4922 90.7217 23.4922 90.3542V86.2626C23.4922 85.8952 23.5622 85.5506 23.7022 85.2258C23.8423 84.901 24.0357 84.6188 24.2824 84.376C24.5292 84.1332 24.8159 83.9429 25.146 83.8051C25.4761 83.6673 25.8262 83.5984 26.1996 83.5984H26.9365C27.31 83.5984 27.6601 83.6673 27.9902 83.8051C28.3202 83.9429 28.607 84.1332 28.8537 84.376C29.1005 84.6188 29.2939 84.901 29.4339 85.2258C29.5739 85.5506 29.644 85.8952 29.644 86.2626V88.3986H24.5925V90.4198C24.5925 90.6396 24.6359 90.843 24.7192 91.0366C24.8026 91.2302 24.9159 91.3943 25.0626 91.5386C25.206 91.6797 25.3761 91.7913 25.5728 91.8766C25.7695 91.9619 25.9762 92.0013 26.1996 92.0013H26.9365C27.1599 92.0013 27.3666 91.9586 27.5634 91.8766C27.7568 91.7946 27.9268 91.683 28.0735 91.5386C28.2202 91.3943 28.3302 91.2302 28.4169 91.0366C28.5003 90.8463 28.5436 90.6396 28.5436 90.4198V89.8161L29.6506 89.9932V90.3575C29.6506 90.7249 29.5806 91.0694 29.4406 91.3943L29.4339 91.391ZM28.537 86.2003C28.537 85.9805 28.4936 85.777 28.4103 85.5835C28.3269 85.3931 28.2135 85.2258 28.0668 85.0814C27.9235 84.9404 27.7534 84.8288 27.5567 84.7435C27.36 84.6615 27.1532 84.6188 26.9298 84.6188H26.193C25.9696 84.6188 25.7628 84.6615 25.5661 84.7435C25.3694 84.8255 25.2027 84.9371 25.056 85.0814C24.9126 85.2225 24.7992 85.3899 24.7125 85.5835C24.6292 85.7738 24.5858 85.9805 24.5858 86.2003V87.5456H28.527V86.2003H28.537Z" fill="#606161"/>
<path d="M36.5386 92.8445V86.2003C36.5386 85.9805 36.4952 85.777 36.4119 85.5835C36.3285 85.3931 36.2152 85.2258 36.0685 85.0814C35.9251 84.9404 35.755 84.8288 35.5583 84.7435C35.3616 84.6615 35.1549 84.6188 34.9315 84.6188H34.1946C33.9712 84.6188 33.7645 84.6615 33.5677 84.7435C33.371 84.8255 33.2043 84.9371 33.0576 85.0814C32.9142 85.2225 32.8008 85.3899 32.7142 85.5835C32.6308 85.7738 32.5875 85.9805 32.5875 86.2003V92.8445H31.4805V83.7723H31.8506L32.4541 84.6943C32.7075 84.3563 33.0209 84.0906 33.4044 83.8937C33.7845 83.6968 34.2013 83.5984 34.6514 83.5984H34.9315C35.3049 83.5984 35.655 83.6673 35.9851 83.8051C36.3152 83.9429 36.6019 84.1332 36.8487 84.376C37.0954 84.6188 37.2888 84.901 37.4289 85.2258C37.5689 85.5506 37.6389 85.8952 37.6389 86.2626V92.8445H36.5319H36.5386Z" fill="#606161"/>
<path d="M50.3908 92.8435L45.0092 83.594L44.9025 83.0461V92.8435H43.7422V80.1423H44.3457L49.7272 89.3983L49.8439 89.9397V80.1423H51.0043V92.8435H50.3908Z" fill="#606161"/>
<path d="M58.9808 91.391C58.8407 91.7158 58.6473 91.998 58.4006 92.2408C58.1539 92.4836 57.8671 92.6739 57.537 92.8117C57.2069 92.9495 56.8568 93.0184 56.4834 93.0184H55.7465C55.3731 93.0184 55.023 92.9495 54.6929 92.8117C54.3628 92.6739 54.076 92.4836 53.8293 92.2408C53.5826 91.998 53.3892 91.7158 53.2491 91.391C53.1091 91.0662 53.0391 90.7217 53.0391 90.3542V86.2626C53.0391 85.8952 53.1091 85.5506 53.2491 85.2258C53.3892 84.901 53.5826 84.6188 53.8293 84.376C54.076 84.1332 54.3628 83.9429 54.6929 83.8051C55.023 83.6673 55.3731 83.5984 55.7465 83.5984H56.4834C56.8568 83.5984 57.2069 83.6673 57.537 83.8051C57.8671 83.9429 58.1539 84.1332 58.4006 84.376C58.6473 84.6188 58.8407 84.901 58.9808 85.2258C59.1208 85.5506 59.1908 85.8952 59.1908 86.2626V88.3986H54.1394V90.4198C54.1394 90.6396 54.1827 90.843 54.2661 91.0366C54.3494 91.2302 54.4628 91.3943 54.6095 91.5386C54.7529 91.6797 54.9229 91.7913 55.1197 91.8766C55.3164 91.9619 55.5231 92.0013 55.7465 92.0013H56.4834C56.7068 92.0013 56.9135 91.9586 57.1102 91.8766C57.3036 91.7946 57.4737 91.683 57.6204 91.5386C57.7671 91.3943 57.8771 91.2302 57.9638 91.0366C58.0472 90.8463 58.0905 90.6396 58.0905 90.4198V89.8161L59.1975 89.9932V90.3575C59.1975 90.7249 59.1275 91.0694 58.9874 91.3943L58.9808 91.391ZM58.0839 86.2003C58.0839 85.9805 58.0405 85.777 57.9571 85.5835C57.8738 85.3931 57.7604 85.2258 57.6137 85.0814C57.4703 84.9404 57.3003 84.8288 57.1036 84.7435C56.9068 84.6615 56.7001 84.6188 56.4767 84.6188H55.7398C55.5164 84.6188 55.3097 84.6615 55.113 84.7435C54.9163 84.8255 54.7496 84.9371 54.6028 85.0814C54.4595 85.2225 54.3461 85.3899 54.2594 85.5835C54.1761 85.7738 54.1327 85.9805 54.1327 86.2003V87.5456H58.0739V86.2003H58.0839Z" fill="#606161"/>
<path d="M64.3947 92.8438C64.058 92.8438 63.7412 92.7815 63.4445 92.6568C63.1477 92.5321 62.891 92.3615 62.6709 92.1417C62.4508 91.9218 62.2774 91.6692 62.1474 91.3805C62.0174 91.0917 61.954 90.78 61.954 90.4519V84.8084H60.2969V83.7716H61.954V81.5929L63.061 81.4158V83.7716H65.4017V84.8084H63.061V90.5044C63.061 90.6881 63.0944 90.8588 63.1644 91.013C63.2344 91.1705 63.3277 91.3083 63.4478 91.4231C63.5678 91.5412 63.7079 91.6331 63.8712 91.702C64.0346 91.7709 64.208 91.8037 64.3947 91.8037H65.4017V92.8405H64.3947V92.8438Z" fill="#606161"/>
<path d="M74.8337 92.8432H74.2302L72.0696 86.0054L72.0329 85.5362L71.9962 86.0054L69.8356 92.8432H69.2221L66.1445 83.771H67.2682L69.4655 90.6285L69.5022 91.0977L69.5388 90.6285L71.6995 83.771H72.3663L74.5169 90.6285L74.5536 91.0977L74.5903 90.6285L76.7876 83.771H77.9113L74.8337 92.8432Z" fill="#606161"/>
<path d="M84.7816 91.391C84.6415 91.7158 84.4481 91.998 84.2014 92.2408C83.9547 92.4836 83.6679 92.6739 83.3378 92.8117C83.0077 92.9495 82.6576 93.0184 82.2842 93.0184H81.5473C81.1738 93.0184 80.8237 92.9495 80.4937 92.8117C80.1636 92.6739 79.8768 92.4836 79.6301 92.2408C79.3833 91.998 79.1899 91.7158 79.0499 91.391C78.9099 91.0662 78.8398 90.7217 78.8398 90.3542V86.2626C78.8398 85.8952 78.9099 85.5506 79.0499 85.2258C79.1899 84.901 79.3833 84.6188 79.6301 84.376C79.8768 84.1332 80.1636 83.9429 80.4937 83.8051C80.8237 83.6673 81.1738 83.5984 81.5473 83.5984H82.2842C82.6576 83.5984 83.0077 83.6673 83.3378 83.8051C83.6679 83.9429 83.9547 84.1332 84.2014 84.376C84.4481 84.6188 84.6415 84.901 84.7816 85.2258C84.9216 85.5506 84.9916 85.8952 84.9916 86.2626V90.3542C84.9916 90.7217 84.9216 91.0662 84.7816 91.391ZM83.8846 86.2003C83.8846 85.9805 83.8413 85.777 83.7579 85.5835C83.6746 85.3931 83.5612 85.2258 83.4145 85.0814C83.2711 84.9404 83.1011 84.8288 82.9044 84.7435C82.7076 84.6615 82.5009 84.6188 82.2775 84.6188H81.5406C81.3172 84.6188 81.1105 84.6615 80.9138 84.7435C80.7171 84.8255 80.5503 84.9371 80.4036 85.0814C80.2603 85.2225 80.1469 85.3899 80.0602 85.5835C79.9768 85.7738 79.9335 85.9805 79.9335 86.2003V90.4165C79.9335 90.6363 79.9768 90.8398 80.0602 91.0334C80.1436 91.2269 80.2569 91.391 80.4036 91.5354C80.547 91.6765 80.7171 91.788 80.9138 91.8733C81.1105 91.9586 81.3172 91.998 81.5406 91.998H82.2775C82.5009 91.998 82.7076 91.9553 82.9044 91.8733C83.0977 91.7913 83.2678 91.6797 83.4145 91.5354C83.5612 91.391 83.6712 91.2269 83.7579 91.0334C83.8413 90.8431 83.8846 90.6363 83.8846 90.4165V86.2003Z" fill="#606161"/>
<path d="M89.55 84.808C89.3267 84.808 89.1199 84.8507 88.9232 84.9327C88.7265 85.0147 88.5598 85.1263 88.4131 85.2707C88.2697 85.4118 88.1563 85.5791 88.0696 85.7727C87.9863 85.963 87.9429 86.1697 87.9429 86.3895V92.8467H86.8359V83.7745H87.206L87.8095 84.6965C88.063 84.3585 88.3764 84.0927 88.7598 83.8959C89.1399 83.699 89.5567 83.6006 90.0069 83.6006H90.6537V84.8146H89.5467L89.55 84.808Z" fill="#606161"/>
<path d="M92.1289 92.8435V80.1423H93.2359V92.8435H92.1289ZM97.2137 92.8435L93.4526 88.309L97.2137 83.7745H98.6541L94.803 88.309L98.6541 92.8435H97.2137Z" fill="#606161"/>
<path d="M106.805 81.1761C106.619 81.1761 106.445 81.2089 106.289 81.2778C106.129 81.3467 105.989 81.4386 105.869 81.5567C105.748 81.6748 105.655 81.8126 105.585 81.9734C105.515 82.1342 105.482 82.3048 105.482 82.4885V83.7714H107.632V84.8083H105.482V92.8437H104.375V84.8083H102.711V83.7714H104.375V82.541C104.375 82.2096 104.438 81.8979 104.565 81.6059C104.692 81.3139 104.865 81.058 105.088 80.8381C105.312 80.6183 105.568 80.4477 105.862 80.323C106.155 80.1983 106.472 80.136 106.805 80.136H107.822V81.1728H106.805V81.1761Z" fill="#606161"/>
<path d="M114.508 91.391C114.368 91.7158 114.175 91.998 113.928 92.2408C113.681 92.4836 113.394 92.6739 113.064 92.8117C112.734 92.9495 112.384 93.0184 112.011 93.0184H111.274C110.9 93.0184 110.55 92.9495 110.22 92.8117C109.89 92.6739 109.603 92.4836 109.357 92.2408C109.11 91.998 108.917 91.7158 108.776 91.391C108.636 91.0662 108.566 90.7217 108.566 90.3542V86.2626C108.566 85.8952 108.636 85.5506 108.776 85.2258C108.917 84.901 109.11 84.6188 109.357 84.376C109.603 84.1332 109.89 83.9429 110.22 83.8051C110.55 83.6673 110.9 83.5984 111.274 83.5984H112.011C112.384 83.5984 112.734 83.6673 113.064 83.8051C113.394 83.9429 113.681 84.1332 113.928 84.376C114.175 84.6188 114.368 84.901 114.508 85.2258C114.648 85.5506 114.718 85.8952 114.718 86.2626V90.3542C114.718 90.7217 114.648 91.0662 114.508 91.391ZM113.611 86.2003C113.611 85.9805 113.568 85.777 113.484 85.5835C113.401 85.3931 113.288 85.2258 113.141 85.0814C112.998 84.9404 112.828 84.8288 112.631 84.7435C112.434 84.6615 112.227 84.6188 112.004 84.6188H111.267C111.044 84.6188 110.837 84.6615 110.64 84.7435C110.444 84.8255 110.277 84.9371 110.13 85.0814C109.987 85.2225 109.873 85.3899 109.787 85.5835C109.703 85.7738 109.66 85.9805 109.66 86.2003V90.4165C109.66 90.6363 109.703 90.8398 109.787 91.0334C109.87 91.2269 109.983 91.391 110.13 91.5354C110.274 91.6765 110.444 91.788 110.64 91.8733C110.837 91.9586 111.044 91.998 111.267 91.998H112.004C112.227 91.998 112.434 91.9553 112.631 91.8733C112.824 91.7913 112.994 91.6797 113.141 91.5354C113.288 91.391 113.398 91.2269 113.484 91.0334C113.568 90.8431 113.611 90.6363 113.611 90.4165V86.2003Z" fill="#606161"/>
<path d="M119.273 84.8078C119.049 84.8078 118.843 84.8504 118.646 84.9325C118.449 85.0145 118.282 85.1261 118.136 85.2704C117.992 85.4115 117.879 85.5788 117.792 85.7724C117.709 85.9627 117.666 86.1694 117.666 86.3893V92.8465H116.559V83.7742H116.929L117.532 84.6962C117.786 84.3583 118.099 84.0925 118.482 83.8956C118.863 83.6988 119.279 83.6003 119.73 83.6003H120.376V84.8143H119.269L119.273 84.8078Z" fill="#606161"/>
<path d="M132.753 90.9385C132.59 91.3158 132.363 91.6472 132.073 91.9294C131.783 92.2115 131.446 92.4346 131.059 92.5987C130.672 92.7628 130.259 92.8415 129.822 92.8415H125.734V80.1404H129.822C130.259 80.1404 130.672 80.2224 131.059 80.3832C131.446 80.544 131.783 80.7671 132.073 81.0525C132.36 81.3347 132.586 81.6694 132.753 82.05C132.92 82.4306 133 82.8374 133 83.2673V89.7245C133 90.1543 132.916 90.5611 132.753 90.9385ZM131.839 83.2673C131.839 82.9851 131.786 82.7193 131.676 82.4732C131.569 82.2272 131.419 82.0139 131.229 81.8269C131.039 81.6398 130.823 81.4955 130.572 81.3872C130.322 81.2789 130.056 81.2264 129.766 81.2264H126.895V91.7489H129.766C130.052 91.7489 130.322 91.6964 130.572 91.5881C130.823 91.4799 131.039 91.3388 131.229 91.155C131.419 90.9713 131.566 90.758 131.676 90.5119C131.783 90.2658 131.839 90.0034 131.839 89.7179V83.2607V83.2673Z" fill="#606161"/>
<path d="M134.934 81.5937V80.1401H136.221V81.5937H134.934ZM135.024 92.8445V83.7723H136.131V92.8445H135.024Z" fill="#606161"/>
<path d="M144.379 94.9958C144.239 95.3042 144.045 95.5667 143.799 95.7833C143.552 95.9998 143.265 96.1704 142.935 96.2918C142.605 96.4132 142.255 96.4723 141.881 96.4723H141.421C141.048 96.4723 140.698 96.41 140.368 96.2918C140.038 96.1704 139.751 95.9998 139.504 95.7833C139.257 95.5667 139.064 95.3009 138.924 94.9958C138.784 94.6874 138.714 94.3527 138.714 93.9852V93.9491C138.714 93.5948 138.781 93.2699 138.911 92.9746C139.044 92.6793 139.224 92.4234 139.451 92.2036C139.164 92.033 138.934 91.8 138.764 91.508C138.594 91.216 138.507 90.8912 138.507 90.5368C138.507 90.2185 138.577 89.92 138.714 89.6476C138.851 89.3753 139.041 89.1489 139.281 88.9783C138.994 88.7289 138.764 88.4336 138.597 88.0825C138.43 87.7347 138.344 87.3541 138.344 86.9407V86.2582C138.344 85.8908 138.414 85.5462 138.554 85.2214C138.694 84.8966 138.887 84.6144 139.134 84.3716C139.381 84.1288 139.667 83.9385 139.998 83.8007C140.328 83.6629 140.678 83.594 141.051 83.594H141.511C141.961 83.594 142.378 83.6924 142.758 83.8893C143.138 84.0862 143.455 84.3552 143.709 84.6899L144.312 83.7679H144.682V86.9407C144.682 87.3082 144.612 87.6527 144.472 87.9775C144.332 88.3024 144.139 88.5845 143.892 88.8273C143.645 89.0701 143.359 89.2604 143.028 89.3983C142.698 89.5361 142.348 89.605 141.975 89.605H140.371C140.244 89.605 140.124 89.6312 140.011 89.6804C139.898 89.7296 139.797 89.7985 139.711 89.8806C139.624 89.9626 139.557 90.061 139.507 90.1759C139.461 90.2907 139.434 90.4088 139.434 90.5335C139.434 90.6582 139.457 90.7763 139.507 90.8879C139.554 90.9994 139.624 91.0979 139.711 91.1832C139.797 91.2685 139.898 91.3341 140.011 91.3833C140.124 91.4325 140.244 91.4555 140.371 91.4555H141.885C142.258 91.4555 142.608 91.5178 142.938 91.636C143.269 91.7574 143.555 91.928 143.802 92.1445C144.049 92.3611 144.242 92.6268 144.382 92.932C144.522 93.2404 144.592 93.5751 144.592 93.9426V93.9787C144.592 94.3461 144.522 94.6808 144.382 94.9892L144.379 94.9958ZM143.582 86.1992C143.582 85.9794 143.539 85.7759 143.455 85.5823C143.372 85.392 143.255 85.2247 143.108 85.0803C142.962 84.9392 142.792 84.8277 142.595 84.7424C142.398 84.6571 142.192 84.6177 141.968 84.6177H141.051C140.828 84.6177 140.621 84.6604 140.424 84.7424C140.228 84.8244 140.061 84.936 139.918 85.0803C139.774 85.2247 139.661 85.3888 139.574 85.5823C139.487 85.7759 139.447 85.9794 139.447 86.1992V87.0063C139.447 87.2262 139.491 87.4296 139.574 87.6232C139.657 87.8168 139.771 87.9808 139.918 88.1252C140.064 88.2696 140.231 88.3778 140.424 88.4631C140.618 88.5452 140.828 88.5878 141.051 88.5878H141.968C142.192 88.5878 142.398 88.5452 142.595 88.4631C142.788 88.3811 142.962 88.2696 143.108 88.1252C143.255 87.9841 143.372 87.8168 143.455 87.6232C143.539 87.4329 143.582 87.2262 143.582 87.0063V86.1992ZM143.535 93.8966C143.535 93.6768 143.492 93.4832 143.409 93.306C143.325 93.1321 143.212 92.9845 143.065 92.8664C142.922 92.7483 142.752 92.6564 142.558 92.5908C142.362 92.5251 142.155 92.4923 141.931 92.4923H141.365C141.141 92.4923 140.934 92.5251 140.738 92.5908C140.544 92.6564 140.374 92.7483 140.228 92.8664C140.081 92.9845 139.971 93.1321 139.884 93.306C139.801 93.4799 139.757 93.6768 139.757 93.8966V94.0377C139.757 94.2575 139.801 94.4511 139.884 94.6218C139.968 94.7924 140.081 94.94 140.228 95.0614C140.371 95.1828 140.541 95.2747 140.738 95.3403C140.931 95.4059 141.141 95.4388 141.365 95.4388H141.931C142.155 95.4388 142.362 95.4059 142.558 95.3403C142.752 95.2747 142.922 95.1828 143.065 95.0614C143.208 94.94 143.322 94.7957 143.409 94.6218C143.492 94.4511 143.535 94.2543 143.535 94.0377V93.8966Z" fill="#606161"/>
<path d="M146.629 81.5939V80.1404H147.916V81.5939H146.629ZM146.719 92.8448V83.7726H147.826V92.8448H146.719Z" fill="#606161"/>
<path d="M153.399 92.8438C153.062 92.8438 152.745 92.7815 152.448 92.6568C152.152 92.5321 151.895 92.3615 151.675 92.1417C151.455 91.9218 151.281 91.6692 151.151 91.3805C151.021 91.0917 150.958 90.78 150.958 90.4519V84.8084H149.301V83.7716H150.958V81.5929L152.065 81.4158V83.7716H154.406V84.8084H152.065V90.5044C152.065 90.6881 152.098 90.8588 152.168 91.013C152.238 91.1705 152.332 91.3083 152.452 91.4231C152.572 91.538 152.712 91.6331 152.875 91.702C153.039 91.7709 153.212 91.8037 153.399 91.8037H154.406V92.8405H153.399V92.8438Z" fill="#606161"/>
<path d="M161.862 92.8432L161.248 91.9409C160.995 92.2657 160.682 92.5282 160.302 92.7251C159.925 92.9219 159.508 93.0204 159.058 93.0204H158.778C158.404 93.0204 158.054 92.9515 157.724 92.8137C157.394 92.6759 157.107 92.4856 156.861 92.2428C156.614 92 156.42 91.7178 156.28 91.3929C156.14 91.0681 156.07 90.7236 156.07 90.3561V90.2675C156.07 89.9 156.14 89.5555 156.28 89.2307C156.42 88.9059 156.614 88.6237 156.861 88.3809C157.107 88.1381 157.394 87.9478 157.724 87.81C158.054 87.6722 158.404 87.6033 158.778 87.6033H161.118V86.2023C161.118 85.9824 161.075 85.779 160.992 85.5854C160.908 85.3951 160.795 85.2278 160.648 85.0834C160.505 84.9423 160.335 84.8308 160.138 84.7454C159.941 84.6601 159.735 84.6208 159.511 84.6208H158.864C158.641 84.6208 158.434 84.6634 158.238 84.7454C158.041 84.8275 157.874 84.939 157.727 85.0834C157.584 85.2245 157.471 85.3918 157.384 85.5854C157.297 85.779 157.257 85.9824 157.257 86.2023V86.5304L156.15 86.3532V86.2646C156.15 85.8971 156.22 85.5526 156.36 85.2278C156.5 84.9029 156.694 84.6208 156.941 84.378C157.187 84.1352 157.474 83.9449 157.804 83.807C158.134 83.6692 158.484 83.6003 158.858 83.6003H159.505C159.878 83.6003 160.228 83.6692 160.558 83.807C160.888 83.9449 161.175 84.1352 161.422 84.378C161.669 84.6208 161.862 84.9029 162.002 85.2278C162.142 85.5526 162.212 85.8971 162.212 86.2646V92.8465H161.842L161.862 92.8432ZM161.125 88.4498H158.784C158.561 88.4498 158.354 88.4925 158.158 88.5745C157.961 88.6565 157.794 88.7713 157.651 88.9157C157.507 89.0601 157.394 89.2274 157.307 89.421C157.221 89.6146 157.181 89.818 157.181 90.0379V90.4185C157.181 90.6383 157.224 90.8417 157.307 91.0353C157.391 91.2289 157.504 91.3929 157.651 91.5373C157.794 91.6784 157.964 91.79 158.158 91.8753C158.351 91.9606 158.561 91.9999 158.784 91.9999H159.521C159.745 91.9999 159.951 91.9573 160.148 91.8753C160.345 91.7932 160.512 91.6817 160.658 91.5373C160.805 91.3929 160.915 91.2289 161.002 91.0353C161.085 90.845 161.128 90.6383 161.128 90.4185V88.4531L161.125 88.4498Z" fill="#606161"/>
<path d="M164.445 92.8435V80.1423H165.552V92.8435H164.445Z" fill="#606161"/>
<path d="M178.832 91.1151C178.668 91.4924 178.442 91.8238 178.152 92.106C177.861 92.3882 177.528 92.6113 177.145 92.7753C176.761 92.9361 176.351 93.0181 175.911 93.0181H174.994C174.557 93.0181 174.144 92.9361 173.757 92.7753C173.37 92.6146 173.033 92.3882 172.743 92.106C172.457 91.8238 172.23 91.4924 172.063 91.1151C171.896 90.7378 171.816 90.3309 171.816 89.9011V83.0797C171.816 82.6499 171.9 82.243 172.063 81.8657C172.227 81.4884 172.457 81.157 172.743 80.8748C173.03 80.5926 173.37 80.3695 173.757 80.2054C174.144 80.0447 174.557 79.9626 174.994 79.9626H175.911C176.348 79.9626 176.761 80.0447 177.145 80.2054C177.528 80.3695 177.865 80.5926 178.152 80.8748C178.438 81.157 178.665 81.4884 178.832 81.8657C178.995 82.243 179.079 82.6499 179.079 83.0797V83.5948L177.918 83.772V83.083C177.918 82.8008 177.865 82.535 177.758 82.2889C177.651 82.0429 177.501 81.8296 177.318 81.6458C177.135 81.4621 176.915 81.3177 176.664 81.2127C176.414 81.1077 176.148 81.052 175.858 81.052H175.047C174.761 81.052 174.491 81.1045 174.24 81.2127C173.99 81.321 173.774 81.4621 173.584 81.6458C173.394 81.8296 173.247 82.0429 173.137 82.2889C173.027 82.535 172.973 82.7975 172.973 83.083V89.9044C172.973 90.1865 173.027 90.4523 173.137 90.6984C173.247 90.9445 173.394 91.1577 173.584 91.3448C173.774 91.5318 173.99 91.6762 174.24 91.7844C174.491 91.8927 174.757 91.9452 175.047 91.9452H175.858C176.144 91.9452 176.414 91.8927 176.664 91.7844C176.915 91.6762 177.131 91.5318 177.318 91.3448C177.505 91.1577 177.651 90.9445 177.758 90.6984C177.865 90.4523 177.918 90.1898 177.918 89.9044V89.2121L179.079 89.3991V89.9044C179.079 90.3342 178.995 90.741 178.832 91.1184V91.1151Z" fill="#606161"/>
<path d="M186.871 91.391C186.731 91.7158 186.538 91.998 186.291 92.2408C186.044 92.4836 185.758 92.6739 185.428 92.8117C185.098 92.9495 184.747 93.0184 184.374 93.0184H183.637C183.264 93.0184 182.914 92.9495 182.583 92.8117C182.253 92.6739 181.967 92.4836 181.72 92.2408C181.473 91.998 181.28 91.7158 181.14 91.391C181 91.0662 180.93 90.7217 180.93 90.3542V86.2626C180.93 85.8952 181 85.5506 181.14 85.2258C181.28 84.901 181.473 84.6188 181.72 84.376C181.967 84.1332 182.253 83.9429 182.583 83.8051C182.914 83.6673 183.264 83.5984 183.637 83.5984H184.374C184.747 83.5984 185.098 83.6673 185.428 83.8051C185.758 83.9429 186.044 84.1332 186.291 84.376C186.538 84.6188 186.731 84.901 186.871 85.2258C187.011 85.5506 187.081 85.8952 187.081 86.2626V90.3542C187.081 90.7217 187.011 91.0662 186.871 91.391ZM185.974 86.2003C185.974 85.9805 185.931 85.777 185.848 85.5835C185.764 85.3931 185.651 85.2258 185.504 85.0814C185.361 84.9404 185.191 84.8288 184.994 84.7435C184.797 84.6582 184.591 84.6188 184.367 84.6188H183.63C183.407 84.6188 183.2 84.6615 183.004 84.7435C182.807 84.8255 182.64 84.9371 182.497 85.0814C182.353 85.2258 182.24 85.3899 182.153 85.5835C182.067 85.777 182.027 85.9805 182.027 86.2003V90.4165C182.027 90.6363 182.07 90.8398 182.153 91.0334C182.237 91.2269 182.35 91.391 182.497 91.5354C182.64 91.6765 182.81 91.788 183.004 91.8733C183.197 91.9586 183.407 91.998 183.63 91.998H184.367C184.591 91.998 184.797 91.9553 184.994 91.8733C185.191 91.7913 185.358 91.6797 185.504 91.5354C185.651 91.391 185.761 91.2269 185.848 91.0334C185.931 90.8431 185.974 90.6363 185.974 90.4165V86.2003Z" fill="#606161"/>
<path d="M198.657 92.8445V86.2003C198.657 85.9805 198.614 85.777 198.53 85.5835C198.447 85.3931 198.333 85.2258 198.187 85.0814C198.043 84.9404 197.873 84.8288 197.677 84.7435C197.48 84.6582 197.273 84.6188 197.05 84.6188H196.5C196.276 84.6188 196.069 84.6615 195.873 84.7435C195.676 84.8255 195.506 84.9371 195.359 85.0814C195.213 85.2225 195.096 85.3899 195.012 85.5835C194.929 85.7738 194.886 85.9805 194.886 86.2003V92.8445H193.789V86.2003C193.789 85.9805 193.745 85.777 193.662 85.5835C193.579 85.3899 193.462 85.2258 193.315 85.0814C193.169 84.9404 192.999 84.8288 192.802 84.7435C192.605 84.6582 192.398 84.6188 192.175 84.6188H191.625C191.401 84.6188 191.195 84.6615 190.998 84.7435C190.801 84.8255 190.635 84.9371 190.491 85.0814C190.348 85.2258 190.234 85.3899 190.148 85.5835C190.061 85.777 190.021 85.9805 190.021 86.2003V92.8445H188.914V83.7723H189.284L189.888 84.6943C190.141 84.3563 190.458 84.0906 190.838 83.8937C191.218 83.6968 191.635 83.5984 192.085 83.5984H192.175C192.698 83.5984 193.169 83.7264 193.589 83.979C194.009 84.2316 194.332 84.5696 194.562 84.9896C194.676 84.7829 194.816 84.5926 194.986 84.4219C195.153 84.2513 195.339 84.1037 195.543 83.9823C195.746 83.8609 195.969 83.7657 196.209 83.7001C196.45 83.6312 196.7 83.5984 196.956 83.5984H197.046C197.42 83.5984 197.77 83.6673 198.1 83.8051C198.43 83.9429 198.717 84.1332 198.964 84.376C199.21 84.6188 199.404 84.901 199.544 85.2258C199.684 85.5506 199.754 85.8952 199.754 86.2626V92.8445H198.647H198.657Z" fill="#606161"/>
<path d="M211.337 92.8445V86.2003C211.337 85.9805 211.293 85.777 211.21 85.5835C211.126 85.3931 211.013 85.2258 210.866 85.0814C210.723 84.9404 210.553 84.8288 210.356 84.7435C210.16 84.6582 209.953 84.6188 209.729 84.6188H209.179C208.956 84.6188 208.749 84.6615 208.552 84.7435C208.356 84.8255 208.186 84.9371 208.039 85.0814C207.892 85.2225 207.776 85.3899 207.692 85.5835C207.609 85.7738 207.565 85.9805 207.565 86.2003V92.8445H206.468V86.2003C206.468 85.9805 206.425 85.777 206.342 85.5835C206.258 85.3899 206.142 85.2258 205.995 85.0814C205.848 84.9404 205.678 84.8288 205.482 84.7435C205.285 84.6582 205.078 84.6188 204.855 84.6188H204.305C204.081 84.6188 203.874 84.6615 203.678 84.7435C203.481 84.8255 203.314 84.9371 203.171 85.0814C203.027 85.2258 202.914 85.3899 202.827 85.5835C202.741 85.777 202.701 85.9805 202.701 86.2003V92.8445H201.594V83.7723H201.964L202.567 84.6943C202.821 84.3563 203.138 84.0906 203.518 83.8937C203.898 83.6968 204.315 83.5984 204.765 83.5984H204.855C205.378 83.5984 205.848 83.7264 206.268 83.979C206.689 84.2316 207.012 84.5696 207.242 84.9896C207.355 84.7829 207.495 84.5926 207.666 84.4219C207.832 84.2513 208.019 84.1037 208.222 83.9823C208.426 83.8609 208.649 83.7657 208.889 83.7001C209.129 83.6312 209.379 83.5984 209.636 83.5984H209.726C210.1 83.5984 210.45 83.6673 210.78 83.8051C211.11 83.9429 211.397 84.1332 211.643 84.376C211.89 84.6188 212.083 84.901 212.223 85.2258C212.364 85.5506 212.434 85.8952 212.434 86.2626V92.8445H211.327H211.337Z" fill="#606161"/>
<path d="M220.235 91.391C220.095 91.7158 219.901 91.998 219.655 92.2408C219.408 92.4836 219.121 92.6739 218.791 92.8117C218.461 92.9495 218.111 93.0184 217.737 93.0184H217C216.627 93.0184 216.277 92.9495 215.947 92.8117C215.617 92.6739 215.33 92.4836 215.083 92.2408C214.836 91.998 214.643 91.7158 214.503 91.391C214.363 91.0662 214.293 90.7217 214.293 90.3542V86.2626C214.293 85.8952 214.363 85.5506 214.503 85.2258C214.643 84.901 214.836 84.6188 215.083 84.376C215.33 84.1332 215.617 83.9429 215.947 83.8051C216.277 83.6673 216.627 83.5984 217 83.5984H217.737C218.111 83.5984 218.461 83.6673 218.791 83.8051C219.121 83.9429 219.408 84.1332 219.655 84.376C219.901 84.6188 220.095 84.901 220.235 85.2258C220.375 85.5506 220.445 85.8952 220.445 86.2626V88.3986H215.393V90.4198C215.393 90.6396 215.437 90.843 215.52 91.0366C215.603 91.2302 215.717 91.3943 215.863 91.5386C216.007 91.6797 216.177 91.7913 216.37 91.8766C216.564 91.9619 216.774 92.0013 216.997 92.0013H217.734C217.957 92.0013 218.164 91.9586 218.361 91.8766C218.558 91.7946 218.724 91.683 218.871 91.5386C219.018 91.3943 219.128 91.2302 219.214 91.0366C219.298 90.8463 219.341 90.6396 219.341 90.4198V89.8161L220.448 89.9932V90.3575C220.448 90.7249 220.378 91.0694 220.238 91.3943L220.235 91.391ZM219.338 86.2003C219.338 85.9805 219.294 85.777 219.211 85.5835C219.128 85.3931 219.014 85.2258 218.868 85.0814C218.724 84.9404 218.554 84.8288 218.357 84.7435C218.161 84.6582 217.954 84.6188 217.731 84.6188H216.994C216.77 84.6188 216.564 84.6615 216.367 84.7435C216.17 84.8255 216.003 84.9371 215.86 85.0814C215.717 85.2258 215.603 85.3899 215.517 85.5835C215.43 85.777 215.39 85.9805 215.39 86.2003V87.5456H219.334V86.2003H219.338Z" fill="#606161"/>
<path d="M225.004 84.808C224.78 84.808 224.574 84.8507 224.377 84.9327C224.18 85.0147 224.013 85.1263 223.87 85.2707C223.727 85.415 223.613 85.5791 223.527 85.7727C223.44 85.9663 223.4 86.1697 223.4 86.3895V92.8467H222.293V83.7745H222.663L223.267 84.6965C223.52 84.3585 223.837 84.0927 224.217 83.8959C224.597 83.699 225.014 83.6006 225.464 83.6006H226.111V84.8146H225.004V84.808Z" fill="#606161"/>
<path d="M233.168 91.391C233.028 91.7158 232.835 91.998 232.588 92.2408C232.341 92.4836 232.055 92.6739 231.725 92.8117C231.394 92.9495 231.044 93.0184 230.671 93.0184H229.934C229.561 93.0184 229.21 92.9495 228.88 92.8117C228.55 92.6739 228.264 92.4836 228.017 92.2408C227.77 91.998 227.577 91.7158 227.437 91.391C227.297 91.0662 227.227 90.7217 227.227 90.3542V86.2626C227.227 85.8952 227.297 85.5506 227.437 85.2258C227.577 84.901 227.77 84.6188 228.017 84.376C228.264 84.1332 228.55 83.9429 228.88 83.8051C229.21 83.6673 229.561 83.5984 229.934 83.5984H230.671C231.044 83.5984 231.394 83.6673 231.725 83.8051C232.055 83.9429 232.341 84.1332 232.588 84.376C232.835 84.6188 233.028 84.901 233.168 85.2258C233.308 85.5506 233.378 85.8952 233.378 86.2626V86.6268L232.271 86.804V86.2003C232.271 85.9805 232.228 85.777 232.145 85.5835C232.061 85.3931 231.948 85.2258 231.801 85.0814C231.658 84.9404 231.488 84.8288 231.291 84.7435C231.094 84.6582 230.888 84.6188 230.664 84.6188H229.927C229.704 84.6188 229.497 84.6615 229.301 84.7435C229.104 84.8255 228.937 84.9371 228.794 85.0814C228.65 85.2258 228.537 85.3899 228.45 85.5835C228.364 85.777 228.324 85.9805 228.324 86.2003V90.4165C228.324 90.6363 228.367 90.8398 228.45 91.0334C228.534 91.2269 228.647 91.391 228.794 91.5354C228.937 91.6765 229.107 91.788 229.301 91.8733C229.494 91.9586 229.704 91.998 229.927 91.998H230.664C230.888 91.998 231.094 91.9553 231.291 91.8733C231.488 91.7913 231.655 91.6797 231.801 91.5354C231.948 91.391 232.058 91.2269 232.145 91.0334C232.228 90.8431 232.271 90.6363 232.271 90.4165V89.8128L233.378 89.99V90.3542C233.378 90.7217 233.308 91.0662 233.168 91.391Z" fill="#606161"/>
<path d="M241.172 91.391C241.032 91.7158 240.839 91.998 240.592 92.2408C240.345 92.4836 240.059 92.6739 239.728 92.8117C239.398 92.9495 239.048 93.0184 238.675 93.0184H237.938C237.564 93.0184 237.214 92.9495 236.884 92.8117C236.554 92.6739 236.267 92.4836 236.021 92.2408C235.774 91.998 235.581 91.7158 235.441 91.391C235.3 91.0662 235.23 90.7217 235.23 90.3542V86.2626C235.23 85.8952 235.3 85.5506 235.441 85.2258C235.581 84.901 235.774 84.6188 236.021 84.376C236.267 84.1332 236.554 83.9429 236.884 83.8051C237.214 83.6673 237.564 83.5984 237.938 83.5984H238.675C239.048 83.5984 239.398 83.6673 239.728 83.8051C240.059 83.9429 240.345 84.1332 240.592 84.376C240.839 84.6188 241.032 84.901 241.172 85.2258C241.312 85.5506 241.382 85.8952 241.382 86.2626V88.3986H236.331V90.4198C236.331 90.6396 236.374 90.843 236.457 91.0366C236.541 91.2302 236.654 91.3943 236.801 91.5386C236.944 91.6797 237.114 91.7913 237.308 91.8766C237.501 91.9619 237.711 92.0013 237.935 92.0013H238.671C238.895 92.0013 239.102 91.9586 239.298 91.8766C239.495 91.7946 239.662 91.683 239.808 91.5386C239.955 91.3943 240.065 91.2302 240.152 91.0366C240.235 90.8463 240.279 90.6396 240.279 90.4198V89.8161L241.386 89.9932V90.3575C241.386 90.7249 241.316 91.0694 241.176 91.3943L241.172 91.391ZM240.275 86.2003C240.275 85.9805 240.232 85.777 240.149 85.5835C240.065 85.3931 239.952 85.2258 239.805 85.0814C239.662 84.9404 239.492 84.8288 239.295 84.7435C239.098 84.6582 238.892 84.6188 238.668 84.6188H237.931C237.708 84.6188 237.501 84.6615 237.304 84.7435C237.108 84.8255 236.941 84.9371 236.798 85.0814C236.654 85.2258 236.541 85.3899 236.454 85.5835C236.367 85.777 236.327 85.9805 236.327 86.2003V87.5456H240.272V86.2003H240.275Z" fill="#606161"/>
<path d="M29.3985 12.9827C38.241 12.9827 45.3497 15.6272 50.728 20.9196C56.1062 26.212 58.797 33.2073 58.797 41.9088C58.797 50.6103 56.0962 57.5596 50.7013 62.8717C45.3031 68.1838 38.201 70.8382 29.4018 70.8382C20.6026 70.8382 13.5439 68.174 8.12901 62.8422C2.70745 57.5137 0 50.5348 0 41.9088C0 33.2828 2.69744 26.258 8.09567 20.9492C13.4939 15.6371 20.5959 12.9827 29.3985 12.9827ZM29.3985 24.5649C22.6399 24.5649 17.5984 27.1898 14.2708 32.4461C12.6036 35.0841 11.7734 38.2373 11.7734 41.9088C11.7734 45.2621 12.5203 48.2676 14.014 50.922C15.5812 53.7109 17.8418 55.8272 20.7893 57.2807C23.4701 58.5965 26.3376 59.256 29.4018 59.256C36.1571 59.256 41.2019 56.6212 44.5295 51.3485C46.1967 48.7302 47.0269 45.5869 47.0269 41.9121C47.0269 36.413 45.2297 32.1016 41.6287 28.9747C38.2577 26.0381 34.1832 24.5682 29.3985 24.5682V24.5649Z" fill="url(#paint0_linear_1195_310)"/>
<path d="M234.214 54.3966L242.797 62.8422C239.353 66.307 235.008 68.6628 229.763 69.9064C227.199 70.5265 224.452 70.8382 221.524 70.8382C212.758 70.8382 205.669 68.174 200.251 62.8422C194.836 57.5137 192.129 50.5348 192.129 41.9088C192.129 33.2828 194.826 26.258 200.225 20.9492C205.619 15.6371 212.722 12.9827 221.524 12.9827C230.327 12.9827 237.479 15.6272 242.857 20.9196L234.214 29.4242C230.847 26.1825 226.616 24.5649 221.524 24.5649C214.769 24.5649 209.727 27.1898 206.396 32.4461C204.733 35.0841 203.899 38.2373 203.899 41.9088C203.899 45.2621 204.649 48.2676 206.14 50.922C207.71 53.7109 209.967 55.8272 212.915 57.2807C215.596 58.5965 218.467 59.256 221.527 59.256C226.619 59.256 230.85 57.6384 234.218 54.3966H234.214Z" fill="url(#paint1_linear_1195_310)"/>
<path d="M151.319 23.3321C152.203 23.3321 152.92 22.6267 152.92 21.7572C152.92 20.8877 152.203 20.1855 151.319 20.1855C150.436 20.1855 149.719 20.891 149.719 21.7572C149.719 22.6234 150.436 23.3321 151.319 23.3321Z" fill="url(#paint2_linear_1195_310)"/>
<path d="M130.801 40.902C130.801 41.089 131.138 41.0923 131.141 40.902C131.141 40.8068 131.068 40.7346 130.971 40.7346C130.874 40.7346 130.801 40.8068 130.801 40.902Z" fill="url(#paint3_linear_1195_310)"/>
<path d="M178.298 20.9194C174.821 17.5005 170.619 15.1939 165.701 13.9832L162.69 16.9493C163.334 18.4258 163.694 20.0499 163.694 21.7561C163.694 23.0619 163.484 24.3219 163.094 25.5031C165.335 26.2315 167.372 27.3799 169.199 28.9712C172.797 32.0981 174.594 36.4094 174.594 41.9086C174.594 45.5834 173.764 48.7267 172.097 51.345C168.769 56.6177 163.727 59.2524 156.969 59.2524H139.34V44.1824C138.01 47.4536 134.762 49.7701 130.971 49.7701C129.768 49.7701 128.621 49.5338 127.57 49.1138V70.838H156.969C165.771 70.838 172.873 68.1836 178.268 62.8715C183.67 57.5594 186.364 50.5739 186.364 41.9086C186.364 33.2432 183.677 26.2118 178.302 20.9194H178.298Z" fill="url(#paint4_linear_1195_310)"/>
<path d="M159.905 25.1199L152.079 21.8355C151.649 21.655 151.209 22.0849 151.396 22.5081L154.733 30.2088C154.817 30.4024 155.013 30.5304 155.237 30.5205C155.454 30.5107 155.644 30.3729 155.71 30.1695L156.741 27.0951L159.865 26.0812C160.072 26.0156 160.215 25.8286 160.222 25.6153C160.232 25.402 160.105 25.2052 159.905 25.1199ZM156.164 26.1993C156.007 26.2518 155.884 26.37 155.83 26.5275L155.15 28.5552L152.863 23.2792L158.224 25.53L156.164 26.1993Z" fill="#939598"/>
<path d="M151.324 16.0837C148.146 16.0837 145.559 18.6299 145.559 21.7568C145.559 24.8836 148.146 27.4298 151.324 27.4298C151.74 27.4298 152.08 27.0951 152.08 26.685C152.08 26.2748 151.74 25.9402 151.324 25.9402C148.98 25.9402 147.072 24.0634 147.072 21.7568C147.072 19.4501 148.98 17.5734 151.324 17.5734C153.668 17.5734 155.575 19.4501 155.575 21.7568C155.575 22.1669 155.915 22.5016 156.332 22.5016C156.748 22.5016 157.089 22.1669 157.089 21.7568C157.089 18.6299 154.501 16.0837 151.324 16.0837Z" fill="#44823D"/>
<path d="M157.774 15.4042C156.043 13.7013 153.749 12.7629 151.319 12.7629C148.888 12.7629 146.594 13.7013 144.864 15.4042C141.306 18.9051 141.306 24.6044 144.864 28.1086C146.594 29.8115 148.888 30.7499 151.319 30.7499C151.736 30.7499 152.076 30.4152 152.076 30.0051C152.076 29.595 151.736 29.2603 151.319 29.2603C147.114 29.2603 143.693 25.8939 143.693 21.7564C143.693 17.619 147.114 14.2526 151.319 14.2526C155.523 14.2526 158.944 17.619 158.944 21.7564C158.944 22.1666 159.284 22.5012 159.701 22.5012C160.118 22.5012 160.458 22.1666 160.458 21.7564C160.458 19.3645 159.504 17.1071 157.774 15.4042Z" fill="#F29C49"/>
<path d="M62.3555 70.8385H74.1255V33.7851L97.6357 52.2937V40.7541L62.3555 12.9829V70.8385Z" fill="url(#paint5_linear_1195_310)"/>
<path d="M138.935 21.7566C138.935 20.0504 139.291 18.4262 139.938 16.9498L137.884 14.9253C135.7 15.1419 133.66 14.3577 132.189 12.9829H106.035V61.5694L117.805 70.8352V24.5652H139.271C139.055 23.6629 138.938 22.7212 138.938 21.7566H138.935Z" fill="url(#paint6_linear_1195_310)"/>
<path d="M165.467 32.1998C164.813 32.1998 164.207 32.3868 163.68 32.692L160.672 29.7324C160.285 30.1721 159.869 30.5822 159.422 30.9628L162.429 33.9224C162.116 34.4408 161.926 35.038 161.926 35.681C161.926 37.6005 163.513 39.1623 165.464 39.1623C167.414 39.1623 169.001 37.6005 169.001 35.681C169.001 33.7616 167.414 32.1998 165.464 32.1998H165.467ZM165.467 37.42C164.49 37.42 163.7 36.6391 163.7 35.681C163.7 34.723 164.493 33.9421 165.467 33.9421C166.441 33.9421 167.234 34.723 167.234 35.681C167.234 36.6391 166.441 37.42 165.467 37.42Z" fill="url(#paint7_linear_1195_310)"/>
<path d="M169.001 0C166.074 0 163.696 2.3427 163.696 5.22022C163.696 6.12252 163.93 6.96905 164.34 7.71058L159.422 12.5502C159.869 12.9308 160.285 13.3409 160.672 13.7806L165.447 9.08207C166.387 9.92203 167.634 10.4404 169.005 10.4404C171.932 10.4404 174.31 8.09774 174.31 5.22022C174.31 2.3427 171.929 0 169.005 0H169.001ZM169.001 8.70147C167.051 8.70147 165.464 7.13966 165.464 5.22022C165.464 3.30078 167.051 1.73898 169.001 1.73898C170.952 1.73898 172.539 3.30078 172.539 5.22022C172.539 7.13966 170.952 8.70147 169.001 8.70147Z" fill="url(#paint8_linear_1195_310)"/>
<path d="M137.167 11.3121C137.82 11.3121 138.427 11.1251 138.954 10.8199L141.961 13.7795C142.348 13.3398 142.765 12.9297 143.212 12.5491L140.204 9.58952C140.514 9.07111 140.704 8.47723 140.704 7.83085C140.704 5.91141 139.117 4.34961 137.167 4.34961C135.216 4.34961 133.629 5.91141 133.629 7.83085C133.629 9.75029 135.216 11.3121 137.167 11.3121ZM137.167 6.09187C138.144 6.09187 138.934 6.87277 138.934 7.83085C138.934 8.78893 138.14 9.56983 137.167 9.56983C136.193 9.56983 135.399 8.78893 135.399 7.83085C135.399 6.87277 136.193 6.09187 137.167 6.09187Z" fill="url(#paint9_linear_1195_310)"/>
<path d="M143.206 30.9628C142.76 30.5822 142.343 30.1721 141.956 29.7324L134.531 37.0394C133.587 36.1995 132.343 35.681 130.973 35.681C128.045 35.681 125.668 38.0238 125.668 40.9013C125.668 43.7788 128.049 46.1215 130.973 46.1215C133.897 46.1215 136.278 43.7788 136.278 40.9013C136.278 39.999 136.044 39.1524 135.634 38.4109L143.206 30.9596V30.9628ZM130.969 44.3825C129.019 44.3825 127.432 42.8207 127.432 40.9013C127.432 38.9818 129.019 37.42 130.969 37.42C132.92 37.42 134.507 38.9818 134.507 40.9013C134.507 42.8207 132.92 44.3825 130.969 44.3825Z" fill="url(#paint10_linear_1195_310)"/>
<path d="M152.196 37.4995V33.9067C151.902 33.9264 151.609 33.9396 151.309 33.9396C151.009 33.9396 150.719 33.9264 150.425 33.9067V37.4995C147.921 37.9162 146.004 40.0588 146.004 42.6443C146.004 45.5251 148.385 47.8645 151.309 47.8645C154.233 47.8645 156.614 45.5218 156.614 42.6443C156.614 40.0621 154.696 37.9162 152.192 37.4995H152.196ZM151.309 46.1255C149.358 46.1255 147.771 44.5637 147.771 42.6443C147.771 40.7249 149.358 39.1631 151.309 39.1631C153.259 39.1631 154.846 40.7249 154.846 42.6443C154.846 44.5637 153.259 46.1255 151.309 46.1255Z" fill="url(#paint11_linear_1195_310)"/>
<defs>
<linearGradient id="paint0_linear_1195_310" x1="39.5481" y1="44.2646" x2="202.986" y2="83.5523" gradientUnits="userSpaceOnUse">
<stop stop-color="#1C75BC"/>
<stop offset="1" stop-color="#00AEEF"/>
</linearGradient>
<linearGradient id="paint1_linear_1195_310" x1="49.7311" y1="1.90897" x2="213.165" y2="41.2001" gradientUnits="userSpaceOnUse">
<stop stop-color="#1C75BC"/>
<stop offset="1" stop-color="#00AEEF"/>
</linearGradient>
<linearGradient id="paint2_linear_1195_310" x1="145.277" y1="20.4448" x2="155.681" y2="22.7792" gradientUnits="userSpaceOnUse">
<stop stop-color="#1C75BC"/>
<stop offset="1" stop-color="#00AEEF"/>
</linearGradient>
<linearGradient id="paint3_linear_1195_310" x1="130.334" y1="40.751" x2="131.436" y2="40.998" gradientUnits="userSpaceOnUse">
<stop stop-color="#1C75BC"/>
<stop offset="1" stop-color="#00AEEF"/>
</linearGradient>
<linearGradient id="paint4_linear_1195_310" x1="50.4114" y1="21.5231" x2="234.965" y2="62.8966" gradientUnits="userSpaceOnUse">
<stop stop-color="#1C75BC"/>
<stop offset="1" stop-color="#00AEEF"/>
</linearGradient>
<linearGradient id="paint5_linear_1195_310" x1="54.4899" y1="39.2776" x2="176.455" y2="81.445" gradientUnits="userSpaceOnUse">
<stop stop-color="#1C75BC"/>
<stop offset="1" stop-color="#00AEEF"/>
</linearGradient>
<linearGradient id="paint6_linear_1195_310" x1="60.9888" y1="20.4802" x2="182.954" y2="62.651" gradientUnits="userSpaceOnUse">
<stop offset="0.05" stop-color="#1C75BC"/>
<stop offset="1" stop-color="#00AEEF"/>
</linearGradient>
<linearGradient id="paint7_linear_1195_310" x1="138.206" y1="28.7087" x2="179.962" y2="38.7446" gradientUnits="userSpaceOnUse">
<stop stop-color="#1C75BC"/>
<stop offset="1" stop-color="#00AEEF"/>
</linearGradient>
<linearGradient id="paint8_linear_1195_310" x1="135.715" y1="0.0393731" x2="186.974" y2="12.3618" gradientUnits="userSpaceOnUse">
<stop stop-color="#1C75BC"/>
<stop offset="1" stop-color="#00AEEF"/>
</linearGradient>
<linearGradient id="paint9_linear_1195_310" x1="112.973" y1="2.82718" x2="154.736" y2="12.8664" gradientUnits="userSpaceOnUse">
<stop stop-color="#1C75BC"/>
<stop offset="1" stop-color="#00AEEF"/>
</linearGradient>
<linearGradient id="paint10_linear_1195_310" x1="97.6032" y1="28.9548" x2="156.685" y2="43.1579" gradientUnits="userSpaceOnUse">
<stop stop-color="#1C75BC"/>
<stop offset="1" stop-color="#00AEEF"/>
</linearGradient>
<linearGradient id="paint11_linear_1195_310" x1="125.771" y1="34.9108" x2="167.887" y2="45.0346" gradientUnits="userSpaceOnUse">
<stop stop-color="#1C75BC"/>
<stop offset="1" stop-color="#00AEEF"/>
</linearGradient>
</defs>
</svg>
