<svg width="436" height="326" viewBox="0 0 436 326" fill="none" xmlns="http://www.w3.org/2000/svg">
<path d="M281.3 313.5L260.4 292.2H210.4L189.2 313.5H171.8L167.1 326H302.9L298 313.5H281.3Z" fill="#0D351C"/>
<path d="M398.1 64V137.9H371.3V70.7C371.3 69.3 370.5 68.4 368.8 68.4H202.6C208.2 62 211.9 54.2 213.3 46H379.7C389.6 46 398.1 53.7 398.1 64Z" fill="#0D351C"/>
<path d="M95.0999 115.7C86.3999 119.2 77.5999 122.7 68.8999 126.2V64C68.8999 53.7 77.0999 46 86.8999 46H120.8C121.5 50.5 123 55 125.2 59.2C127 62.6 129.1 65.7 131.5 68.4H97.8999C96.7999 68.4 95.0999 69.3 95.0999 70.7V115.7Z" fill="#0D351C"/>
<path d="M398.1 250.7V268.9C398.1 278.8 389.8 286.9 379.7 286.9H86.8999C76.9999 286.9 68.8999 278.8 68.8999 268.9V215C77.5999 218.5 86.3999 222 95.0999 225.5V254.8H372.1V250.6H398.1V250.7Z" fill="#0D351C"/>
<path d="M371.4 169.5H398.1V220.4H372" fill="#0D351C"/>
<path d="M416.7 235.4H251.7C246.4 235.4 242.1 231.5 242.1 226.7V163.2C242.1 158.4 246.4 154.5 251.7 154.5H416.7C422 154.5 426.3 158.4 426.3 163.2V226.7C426.2 231.5 421.9 235.4 416.7 235.4Z" stroke="white" stroke-width="19" stroke-miterlimit="10"/>
<path d="M320.5 126.4H246.4C244 126.4 242.1 124.5 242.1 122.1V90.4C242.1 88 244 86.1 246.4 86.1H320.5C322.9 86.1 324.8 88 324.8 90.4V122.1C324.8 124.5 322.9 126.4 320.5 126.4Z" stroke="white" stroke-width="18" stroke-miterlimit="10"/>
<path d="M0.700098 160.5C1.3001 160.3 1.1001 159.7 1.3001 159.2C3.3001 152.4 8.9001 147.9 15.9001 147.8C23.2001 147.7 30.5001 147.7 37.8001 147.8C39.0001 147.8 40.0001 147.6 41.1001 147.2C68.8001 136.1 96.5001 125 124.1 113.9C126.2 113 128.3 112.7 130.2 114.2C131.4 115.1 132.2 116.3 132.2 117.9C132.2 118.5 132.2 119.1 132.2 119.7C132.2 154.6 132.2 189.5 132.2 224.4C132.2 225.4 132.3 226.4 132 227.3C131 230.3 127.9 231.7 124.6 230.3C115 226.5 105.5 222.6 95.9001 218.8C82.8001 213.6 69.8001 208.3 56.7001 203.1C56.4001 203 56.0001 202.9 55.4001 202.6C55.7001 205.3 55.9001 207.8 56.2001 210.4C57.2001 219.5 58.3001 228.7 59.3001 237.8C59.6001 240.1 59.4001 242.1 57.4001 243.6C56.4001 244.4 55.2001 244.6 53.9001 244.6C47.2001 244.6 40.6001 244.6 33.9001 244.6C30.6001 244.6 28.7001 243 28.2001 239.8C26.6001 228.9 25.1001 218.1 23.6001 207.2C23.1001 203.9 22.7001 200.7 22.2001 197.4C22.1001 196.4 21.7001 196.1 20.7001 196.1C17.8001 196.1 14.8001 196.4 12.0001 195.7C6.5001 194.4 2.5001 191.4 1.0001 185.7C0.900098 185.5 1.0001 185.1 0.600098 185.1C0.700098 177 0.700098 168.7 0.700098 160.5Z" fill="white"/>
<path d="M139.3 152.5C139.3 151.3 139.9 149.9 141.2 148.9C147 144.3 152.7 139.6 158.5 135C160.8 133.2 164 133.6 165.8 135.8C167.6 138 167.4 141.2 165.1 143.1C159.3 147.8 153.5 152.5 147.6 157.1C145.9 158.5 143.9 158.6 142 157.6C140.3 156.6 139.4 155 139.3 152.5Z" fill="white"/>
<path d="M144.6 192.8C145.9 192.9 147 193.3 148 194.1C153.6 198.6 159.2 203.1 164.8 207.6C167.3 209.6 167.7 212.8 165.9 215.1C164 217.4 160.9 217.8 158.4 215.8C152.7 211.3 147 206.7 141.3 202.1C139.5 200.6 138.9 198.4 139.6 196.3C140.4 194.1 142.4 192.8 144.6 192.8Z" fill="white"/>
<path d="M153.2 170.3C156 170.3 158.8 170.3 161.6 170.3C164.7 170.3 167 172.6 167 175.5C167 178.4 164.7 180.6 161.6 180.6C155.9 180.6 150.3 180.6 144.6 180.6C141.6 180.6 139.3 178.4 139.3 175.4C139.3 172.5 141.5 170.2 144.5 170.2C147.5 170.2 150.3 170.3 153.2 170.3Z" fill="white"/>
<path d="M167.4 0.199951C184.6 0.199951 200.2 11.6 205.1 28.4C210.1 45.5 202.2 63.7999 186.1 72.5999C166.6 83.1999 141.9 75.7 131.7 56C123.4 40.1 127.9 20 142.1 8.89995C149.4 3.19995 157.7 0.299951 167.4 0.199951Z" fill="white"/>
<path d="M166.5 42.5C164.5 42.4 162.2 42.7 160 42.1C154.5 40.6 151.1 35.7 151.6 29.8C152.1 24.7 156.5 20.4 161.9 20C163.2 19.9 163.6 19.5 163.4 18.3C163.3 17.6 163.4 16.9 163.4 16.2C163.4 14.1 165.1 12.4 167.1 12.4C169.1 12.4 170.7 14 170.7 16.1C170.7 17.2 170.3 18.6 170.8 19.5C171.3 20.4 172.9 19.9 173.9 20.2C176.4 20.9 178.6 22.1 180.3 24C181.7 25.5 181.7 27.6 180.3 29.1C178.9 30.6 176.6 30.7 175.1 29.2C173.5 27.6 171.7 27.1 169.6 27.2C167.4 27.3 165.2 27.2 163 27.2C160.5 27.2 158.8 28.8 158.8 31.1C158.8 33.4 160.5 35.1 163.1 35.1C165.7 35.1 168.2 35.1 170.8 35.1C177.4 35.1 182.3 39.8 182.4 46.1C182.6 52.4 177.9 57.2 171.4 57.6C170.7 57.6 170.5 57.9 170.6 58.5C170.6 59.5 170.6 60.5 170.6 61.4C170.5 63.4 169 64.9 167 65C165 65 163.3 63.5 163.3 61.4C163.3 60.4 163.3 59.4 163.3 58.5C163.3 57.8 163.1 57.6 162.4 57.6C159.8 57.6 157.3 56.9 155.1 55.4C153.3 54.2 152.7 52.1 153.7 50.3C154.8 48.5 157 48 158.9 49.2C160.2 50 161.6 50.3 163.1 50.3C165.7 50.2 168.2 50.3 170.8 50.3C173.3 50.3 175 48.6 175 46.3C175 44 173.3 42.4 170.9 42.4C169.6 42.5 168.2 42.5 166.5 42.5Z" fill="#30A75C"/>
</svg>
