<svg width="367" height="296" viewBox="0 0 367 296" fill="none" xmlns="http://www.w3.org/2000/svg">
<path d="M213.3 283.5L192.4 262.2H142.4L121.2 283.5H103.8L99.1001 296H234.9L230 283.5H213.3Z" fill="#0D351C"/>
<path d="M47.7 176.5C47.9 176.2 47.6 175.9 47.5 175.7C46 171.6 47.3 167.2 50.8 164.6C54.5 161.9 58.2 159.3 61.9 156.7C62.5 156.3 63 155.8 63.3 155.2C73.3 139.6 83.4 123.9 93.4 108.3C94.2 107.1 95.1 106.2 96.6 106.2C97.6 106.2 98.4 106.6 99 107.3C99.2 107.6 99.4 107.9 99.7 108.2C112.3 125.9 124.9 143.6 137.6 161.3C138 161.8 138.3 162.3 138.5 162.9C139.1 164.8 138 166.6 135.9 167.1C129.7 168.6 123.4 170.1 117.2 171.6C108.7 173.7 100.2 175.7 91.6 177.8C91.4 177.9 91.2 177.9 90.8 178C91.9 179.3 93 180.5 94 181.6C97.8 185.9 101.7 190.1 105.5 194.4C106.4 195.5 107.1 196.6 106.6 198.1C106.4 198.9 105.9 199.4 105.2 199.9C101.8 202.3 98.4 204.7 95.1 207.1C93.4 208.3 91.9 208.2 90.5 206.7C85.8 201.8 81.1 196.8 76.4 191.8C75 190.3 73.6 188.8 72.2 187.3C71.8 186.8 71.5 186.8 71 187.2C69.5 188.3 68.1 189.5 66.4 190.2C63.1 191.5 60 191.4 57.2 189.1C57.1 189 57 188.8 56.8 188.9C53.6 184.9 50.6 180.7 47.7 176.5Z" fill="white"/>
<path d="M115.1 122.3C114.7 121.7 114.5 120.8 114.8 119.8C116.1 115.4 117.3 110.9 118.6 106.5C119.1 104.7 120.9 103.8 122.6 104.3C124.3 104.8 125.3 106.5 124.9 108.2C123.7 112.7 122.4 117.1 121.1 121.6C120.7 122.9 119.8 123.7 118.4 123.9C117.1 124 116 123.6 115.1 122.3Z" fill="white"/>
<path d="M132.3 140.9C133 140.5 133.7 140.3 134.5 140.3C139 140.6 143.4 140.8 147.9 141.1C149.9 141.2 151.2 142.7 151.1 144.5C151 146.4 149.5 147.7 147.5 147.6C143 147.4 138.4 147.1 133.9 146.8C132.4 146.7 131.3 145.8 130.9 144.5C130.7 143.1 131.2 141.7 132.3 140.9Z" fill="white"/>
<path d="M128.6 126.3C130 125.3 131.4 124.3 132.9 123.3C134.5 122.2 136.5 122.5 137.5 124C138.5 125.5 138.2 127.4 136.6 128.5C133.7 130.6 130.9 132.6 128 134.7C126.4 135.8 124.5 135.5 123.4 134C122.3 132.5 122.6 130.6 124.2 129.5C125.6 128.4 127.1 127.4 128.6 126.3Z" fill="white"/>
<path d="M208.4 16C211.4 20.4 213.8 25.4 215.3 30.7C216.1 33.2 216.6 35.8 216.9 38.3H237.8V16H208.4ZM304.1 221V224.8H27.0999V40.7C27.0999 39.3 28.7999 38.3 29.8999 38.3H109.6C110.6 30.4 113.5 22.7 118 15.9H18.8999C8.9999 15.9 0.899902 23.6 0.899902 33.9V238.8C0.899902 248.6 9.0999 256.8 18.8999 256.8H311.8C321.8 256.8 330.2 248.7 330.2 238.8V221H304.1ZM303.3 99.2V114H330.1V99.2H303.3Z" fill="#0D351C"/>
<path d="M289.6 5.69995C298.8 5.69995 308 5.69995 317.2 5.69995C325.9 5.69995 331.9 11.7 331.9 20.5C331.9 38.7999 331.9 57.0999 331.9 75.3999C331.9 84.3999 326 90.3 317 90.3C298.7 90.3 280.4 90.3 262.1 90.3C253.3 90.3 247.4 84.2999 247.3 75.5999C247.3 66.7999 247.3 57.9999 247.3 49.1999C247.3 45.4999 249.1 43.4 252 43.4C254.9 43.4 256.7 45.6 256.7 49.3C256.7 57.9 256.7 66.4999 256.7 75.0999C256.7 79.2999 258.4 81 262.5 81C280.5 81 298.5 81 316.5 81C320.7 81 322.4 79.4 322.4 75.2C322.4 57.1 322.4 39 322.4 20.9C322.4 16.9 320.7 15.2999 316.6 15.2999C298.5 15.2999 280.4 15.2999 262.3 15.2999C258.3 15.2999 256.7 17 256.6 21C256.6 23.6 256.6 26.3 256.6 28.9C256.5 32 254.5 34.1 251.8 34C249.2 33.9 247.3 31.9 247.3 28.9C247.2 25.9 247.2 22.8 247.3 19.8C247.4 12 253.5 5.89995 261.3 5.89995C270.9 5.69995 280.2 5.69995 289.6 5.69995Z" fill="white"/>
<path d="M246.8 113.4C228.9 113.4 211.1 113.4 193.2 113.4C188.8 113.4 187.3 115 187.3 119.4C187.3 143.4 187.3 167.3 187.3 191.3C187.3 195.7 188.9 197.3 193.2 197.3C211 197.3 228.7 197.3 246.5 197.3C251 197.3 252.6 195.7 252.6 191.2C252.6 179.4 252.6 167.5 252.6 155.7C252.6 143.6 252.6 131.4 252.6 119.3C252.6 115 251 113.4 246.8 113.4ZM243.3 155.3C243.3 165.4 243.2 175.5 243.3 185.6C243.3 187.5 242.8 188 240.9 188C226.9 187.9 212.9 187.9 198.9 188C197 188 196.5 187.5 196.5 185.6C196.6 165.4 196.6 145.2 196.5 125C196.5 123.1 197 122.6 198.9 122.6C212.9 122.7 226.9 122.7 240.9 122.6C242.8 122.6 243.3 123.1 243.3 125C243.2 135.1 243.3 145.2 243.3 155.3Z" fill="white"/>
<path d="M163.5 0.299956C138.9 0.0999564 119 20 118.8 44.6C118.7 68.8 138.5 89 162.6 89.2C187.3 89.4 207.6 69.7 207.7 45.3C208 20.5 188.2 0.399956 163.5 0.299956ZM163.1 79.3C144.3 79.3 128.7 63.7 128.7 44.9C128.7 25.7 144.1 10.1 163.3 10.1C182.3 10.1 197.9 25.6 197.9 44.7C197.9 63.9 182.4 79.3 163.1 79.3Z" fill="white"/>
<path d="M279.9 167.6C279.9 158.3 279.9 148.9 279.9 139.6C279.9 130.4 286 124.3 295.1 124.3C313.9 124.3 332.7 124.3 351.4 124.3C360.4 124.3 366.6 130.4 366.6 139.4C366.6 148.4 366.6 157.5 366.6 166.5C366.6 170.3 364.8 172.5 361.8 172.5C358.8 172.5 357 170.3 357 166.5C357 157.7 357 148.8 357 140C357 135.6 355.3 133.9 351 133.9C332.4 133.9 313.8 133.9 295.3 133.9C291.2 133.9 289.5 135.7 289.5 139.8C289.5 158.4 289.5 177 289.5 195.5C289.5 199.6 291.3 201.3 295.4 201.3C314 201.3 332.6 201.3 351.1 201.3C355.2 201.3 356.9 199.6 357 195.5C357 192.7 356.9 189.9 357 187.1C357.1 184.1 359.2 182 361.9 182.1C364.5 182.2 366.5 184.1 366.6 187C366.7 190.5 366.8 194 366.6 197.5C366.2 204.9 360 210.9 352.6 210.9C333.1 211 313.6 211 294.2 210.9C286.2 210.9 280 204.5 280 196.4C279.9 186.9 279.9 177.2 279.9 167.6Z" fill="white"/>
<path d="M323.1 148.4C312.5 148.5 303.9 157.2 304 167.9C304.1 178.4 312.8 187 323.3 186.9C334 186.9 342.6 178.2 342.6 167.5C342.6 156.9 333.8 148.3 323.1 148.4ZM323.5 177.3C318.1 177.4 313.7 173 313.7 167.7C313.7 162.5 317.9 158.2 323.2 158.1C328.4 158 332.8 162.2 333 167.4C333.1 172.7 328.8 177.2 323.5 177.3Z" fill="white"/>
<path d="M280.3 60.6C280.3 59.8 280.3 59 280.3 58.3C280.3 56.6 280.8 54.4 280 53.2C279.2 52 276.9 52.9 275.3 52.7C272.7 52.4 270.9 50.5 270.9 48C270.9 45.4 272.8 43.5 275.5 43.3C280.1 42.9 280.1 42.9 280.2 38.3C280.4 30.6 286.4 24.6 294.1 24.5C297 24.4 300 24.5 302.9 24.5C306.3 24.5 308.4 26.4 308.4 29.3C308.3 32 306.3 33.9 303.1 33.9C300.4 33.9 297.6 33.9 294.9 33.9C290.7 34 287.8 39 289.7 42.7C290.1 43.4 290.7 43.2 291.2 43.2C292.4 43.2 293.6 43.1 294.7 43.2C297.3 43.4 299.1 45.5 299 47.9C299 50.3 297.2 52.2 294.6 52.6C293 52.8 290.7 51.8 289.9 53.1C289.1 54.4 289.6 56.5 289.6 58.2C289.6 60.9 289.7 63.7 289.6 66.4C289.5 69.4 287.6 71.4 284.9 71.4C282.2 71.4 280.3 69.4 280.2 66.4C280.2 64.5 280.3 62.6 280.3 60.6Z" fill="white"/>
<path d="M233.9 155.2C234 157.9 231.9 159.9 228.8 160C225.8 160.1 222.8 160 219.8 160C216.9 160 214 160 211.1 160C208 159.9 205.9 158.1 205.9 155.3C205.9 152.6 207.9 150.7 211.1 150.7C217 150.7 222.9 150.7 228.8 150.7C231.9 150.7 233.8 152.6 233.9 155.2Z" fill="white"/>
<path d="M233.9 173.9C233.9 176.6 231.9 178.6 228.8 178.6C225.8 178.7 222.8 178.6 219.8 178.6C216.9 178.6 214 178.6 211.1 178.6C208 178.5 205.9 176.6 206 173.9C206 171.3 208 169.4 211 169.3C217 169.2 223 169.2 229 169.3C231.9 169.4 233.9 171.3 233.9 173.9Z" fill="white"/>
<path d="M233.9 136.5C234 139 232.1 141.1 229.4 141.3C227.8 141.4 226.1 141.3 224.5 141.3C222.9 141.3 221.2 141.4 219.6 141.3C217.1 141.1 215.3 139.1 215.3 136.7C215.3 134.3 217.1 132.2 219.6 132.1C222.9 131.9 226.2 132 229.5 132.1C232 132.2 233.8 134.1 233.9 136.5Z" fill="white"/>
<path d="M184.3 39.7999C175 35.1999 165.8 30.4999 156.5 25.9999C151.9 23.6999 148.5 25.7999 148.4 30.8999C148.4 35.4999 148.4 40.1999 148.4 44.7999C148.4 49.3999 148.4 54.0999 148.4 58.6999C148.4 63.5999 151.8 65.7999 156.2 63.6999C165.6 59.0999 174.9 54.3999 184.3 49.6999C186.4 48.6999 187.9 47.1999 187.9 44.7999C188 42.2999 186.4 40.8999 184.3 39.7999ZM158.5 51.5999V37.9999C163 40.1999 167.2 42.3999 172 44.6999C167.3 47.0999 163.1 49.1999 158.5 51.5999Z" fill="white"/>
</svg>
