<svg width="1121" height="180" viewBox="0 0 1121 180" fill="none" xmlns="http://www.w3.org/2000/svg">
<path d="M55.9125 146.2C44.8458 146.2 34.3792 144.8 24.5125 142C14.7792 139.2 6.64583 135.4 0.112501 130.6L9.1125 106.2C15.3792 110.6 22.5125 114.067 30.5125 116.6C38.6458 119.133 47.1125 120.4 55.9125 120.4C65.5125 120.4 72.3792 118.933 76.5125 116C80.7792 112.933 82.9125 109.133 82.9125 104.6C82.9125 100.733 81.4458 97.6667 78.5125 95.4C75.5792 93.1333 70.4458 91.2 63.1125 89.6L40.5125 84.8C15.3125 79.4667 2.7125 66.4 2.7125 45.6C2.7125 36.6667 5.1125 28.8667 9.9125 22.2C14.7125 15.4 21.3792 10.1333 29.9125 6.4C38.5792 2.66666 48.5792 0.799996 59.9125 0.799996C69.6458 0.799996 78.7792 2.19999 87.3125 4.99999C95.8458 7.79999 102.913 11.7333 108.513 16.8L99.5125 39.6C88.5792 30.9333 75.3125 26.6 59.7125 26.6C51.3125 26.6 44.7792 28.2667 40.1125 31.6C35.5792 34.8 33.3125 39 33.3125 44.2C33.3125 48.0667 34.7125 51.2 37.5125 53.6C40.3125 56 45.1792 57.9333 52.1125 59.4L74.7125 64.2C100.579 69.8 113.513 82.4667 113.513 102.2C113.513 111 111.113 118.733 106.313 125.4C101.646 131.933 94.9792 137.067 86.3125 140.8C77.7792 144.4 67.6458 146.2 55.9125 146.2ZM177.87 146.2C150.27 146.2 136.47 132.8 136.47 106V68.4H117.87V45.8H136.47V17H166.67V45.8H195.67V68.4H166.67V104.8C166.67 110.4 167.937 114.6 170.47 117.4C173.137 120.2 177.337 121.6 183.07 121.6C184.804 121.6 186.604 121.4 188.47 121C190.47 120.6 192.604 120.067 194.87 119.4L199.27 141.4C196.47 142.867 193.137 144 189.27 144.8C185.404 145.733 181.604 146.2 177.87 146.2ZM256.753 146.2C246.22 146.2 237.02 144.133 229.153 140C221.42 135.733 215.42 129.8 211.153 122.2C206.886 114.467 204.753 105.333 204.753 94.8C204.753 84.4 206.886 75.4 211.153 67.8C215.42 60.0667 221.42 54.1333 229.153 50C237.02 45.8667 246.22 43.8 256.753 43.8C267.286 43.8 276.42 45.8667 284.153 50C292.02 54.1333 298.086 60.0667 302.353 67.8C306.753 75.4 308.953 84.4 308.953 94.8C308.953 105.333 306.753 114.467 302.353 122.2C298.086 129.8 292.02 135.733 284.153 140C276.42 144.133 267.286 146.2 256.753 146.2ZM256.753 123.6C263.153 123.6 268.353 121.267 272.353 116.6C276.486 111.933 278.553 104.667 278.553 94.8C278.553 85.0667 276.486 77.9333 272.353 73.4C268.353 68.7333 263.153 66.4 256.753 66.4C250.353 66.4 245.153 68.7333 241.153 73.4C237.153 77.9333 235.153 85.0667 235.153 94.8C235.153 104.667 237.153 111.933 241.153 116.6C245.153 121.267 250.353 123.6 256.753 123.6ZM327.327 144V45.8H356.927V62.8C361.593 51.3333 371.593 45 386.927 43.8L395.727 43.2L397.527 68.6L380.527 70.4C365.593 71.8667 358.127 79.4667 358.127 93.2V144H327.327ZM423.403 180L442.203 138.6L401.803 45.8H433.603L458.203 108.2L483.603 45.8H513.603L454.203 180H423.403ZM573.964 146.2C546.364 146.2 532.564 132.8 532.564 106V68.4H513.964V45.8H532.564V17H562.764V45.8H591.764V68.4H562.764V104.8C562.764 110.4 564.031 114.6 566.564 117.4C569.231 120.2 573.431 121.6 579.164 121.6C580.897 121.6 582.697 121.4 584.564 121C586.564 120.6 588.697 120.067 590.964 119.4L595.364 141.4C592.564 142.867 589.231 144 585.364 144.8C581.497 145.733 577.697 146.2 573.964 146.2ZM656.647 146.2C645.047 146.2 635.047 144.133 626.647 140C618.38 135.733 611.98 129.8 607.447 122.2C603.047 114.467 600.847 105.4 600.847 95C600.847 84.8667 602.98 76 607.247 68.4C611.647 60.6667 617.58 54.6667 625.047 50.4C632.647 46 641.38 43.8 651.247 43.8C665.514 43.8 676.847 48.3333 685.247 57.4C693.647 66.3333 697.847 78.4667 697.847 93.8V101.4H629.647C630.714 109.133 633.514 114.8 638.047 118.4C642.714 121.867 649.114 123.6 657.247 123.6C662.58 123.6 667.98 122.8 673.447 121.2C678.914 119.6 683.847 117.133 688.247 113.8L696.247 134C691.314 137.733 685.247 140.733 678.047 143C670.98 145.133 663.847 146.2 656.647 146.2ZM652.447 63.8C646.047 63.8 640.847 65.7333 636.847 69.6C632.98 73.4667 630.58 78.8667 629.647 85.8H672.847C672.047 71.1333 665.247 63.8 652.447 63.8ZM752.013 146.2C739.346 146.2 730.079 142.933 724.213 136.4C718.346 129.733 715.413 119.867 715.413 106.8V2.99999H745.613V105.6C745.613 116.267 750.346 121.6 759.813 121.6C761.279 121.6 762.679 121.533 764.013 121.4C765.479 121.267 766.879 121 768.213 120.6L767.813 144C762.746 145.467 757.479 146.2 752.013 146.2ZM818.614 146.2C805.947 146.2 796.681 142.933 790.814 136.4C784.947 129.733 782.014 119.867 782.014 106.8V2.99999H812.214V105.6C812.214 116.267 816.947 121.6 826.414 121.6C827.881 121.6 829.281 121.533 830.614 121.4C832.081 121.267 833.481 121 834.814 120.6L834.414 144C829.347 145.467 824.081 146.2 818.614 146.2ZM898.639 146.2C887.039 146.2 877.039 144.133 868.639 140C860.372 135.733 853.972 129.8 849.439 122.2C845.039 114.467 842.839 105.4 842.839 95C842.839 84.8667 844.972 76 849.239 68.4C853.639 60.6667 859.572 54.6667 867.039 50.4C874.639 46 883.372 43.8 893.239 43.8C907.506 43.8 918.839 48.3333 927.239 57.4C935.639 66.3333 939.839 78.4667 939.839 93.8V101.4H871.639C872.706 109.133 875.506 114.8 880.039 118.4C884.706 121.867 891.106 123.6 899.239 123.6C904.572 123.6 909.972 122.8 915.439 121.2C920.906 119.6 925.839 117.133 930.239 113.8L938.239 134C933.306 137.733 927.239 140.733 920.039 143C912.972 145.133 905.839 146.2 898.639 146.2ZM894.439 63.8C888.039 63.8 882.839 65.7333 878.839 69.6C874.972 73.4667 872.572 78.8667 871.639 85.8H914.839C914.039 71.1333 907.239 63.8 894.439 63.8ZM957.405 144V45.8H987.005V62.8C991.671 51.3333 1001.67 45 1017 43.8L1025.8 43.2L1027.6 68.6L1010.6 70.4C995.671 71.8667 988.205 79.4667 988.205 93.2V144H957.405ZM1076.45 146.2C1067.78 146.2 1059.72 145.2 1052.25 143.2C1044.78 141.2 1038.58 138.467 1033.65 135L1040.85 115.4C1045.78 118.467 1051.38 120.933 1057.65 122.8C1064.05 124.533 1070.38 125.4 1076.65 125.4C1082.25 125.4 1086.38 124.533 1089.05 122.8C1091.72 120.933 1093.05 118.533 1093.05 115.6C1093.05 110.933 1089.65 108 1082.85 106.8L1061.85 103C1053.45 101.533 1047.05 98.5333 1042.65 94C1038.25 89.4667 1036.05 83.5333 1036.05 76.2C1036.05 69.5333 1037.92 63.8 1041.65 59C1045.38 54.2 1050.52 50.4667 1057.05 47.8C1063.58 45.1333 1071.12 43.8 1079.65 43.8C1086.72 43.8 1093.58 44.7333 1100.25 46.6C1106.92 48.3333 1112.65 51.1333 1117.45 55L1109.85 74.4C1105.85 71.4667 1101.05 69.0667 1095.45 67.2C1089.98 65.3333 1084.85 64.4 1080.05 64.4C1074.05 64.4 1069.72 65.4 1067.05 67.4C1064.38 69.2667 1063.05 71.6667 1063.05 74.6C1063.05 79.2667 1066.18 82.2 1072.45 83.4L1093.45 87.2C1102.12 88.6667 1108.72 91.6 1113.25 96C1117.78 100.267 1120.05 106.133 1120.05 113.6C1120.05 123.867 1116.05 131.867 1108.05 137.6C1100.05 143.333 1089.52 146.2 1076.45 146.2Z" fill="#008F34"/>
</svg>
