<svg width="328" height="65" viewBox="0 0 328 65" fill="none" xmlns="http://www.w3.org/2000/svg">
<path d="M64.8197 27.5692L59.3123 31.8346C58.9344 29.567 59.3803 23.8256 53.751 15.2585C48.8915 7.86309 38.6088 3.57782 34.9609 3.10986C36.2028 3.26917 38.5785 3.59582 39.7665 3.86578C41.3651 4.22914 49.4314 6.40352 55.2628 13.4228C61.0941 20.442 61.634 26.4353 61.742 26.8132C61.85 27.1911 62.0661 27.3531 62.444 27.3531C62.822 27.3531 63.9019 26.7052 64.4958 26.8132C64.9709 26.8996 64.9098 27.3531 64.8197 27.5692Z" fill="#E6E7E9"/>
<path d="M37.5039 64.9375L33.2422 59.4271C35.5102 59.0508 41.2512 59.5006 49.8223 53.8774C57.2212 49.0231 61.5137 38.7436 61.9842 35.0959C61.824 36.3376 61.4957 38.7131 61.2249 39.9008C60.8604 41.4993 58.6804 49.564 51.6571 55.3905C44.6336 61.2169 38.6399 61.7526 38.2619 61.8604C37.884 61.9681 37.7217 62.1839 37.7215 62.5619C37.7212 62.9399 38.3685 64.0203 38.2601 64.614C38.1733 65.0891 37.7198 65.0276 37.5039 64.9375Z" fill="#BCBDC0"/>
<path d="M27.718 0.0629645L31.9726 5.57888C29.7042 5.95231 23.9637 5.49498 15.3853 11.1072C7.9802 15.9519 3.67444 26.226 3.19922 29.8729C3.36099 28.6314 3.69238 26.2563 3.96471 25.069C4.33126 23.471 6.52171 15.4092 13.5526 9.59175C20.5835 3.77437 26.5778 3.24637 26.956 3.13913C27.334 3.03189 27.4965 2.81624 27.4973 2.43828C27.4981 2.06033 26.8523 0.979146 26.9614 0.385424C27.0488 -0.0895535 27.5023 -0.0274553 27.718 0.0629645Z" fill="#BCBDC0"/>
<path d="M0.0630899 37.6986L5.58074 33.4463C5.95325 35.7149 5.49355 41.4552 11.1023 50.0359C15.944 57.4429 26.2162 61.7529 29.863 62.2297C28.6216 62.0674 26.2466 61.7351 25.0593 61.4622C23.4615 61.095 15.4006 58.9012 9.58607 51.8679C3.77156 44.8347 3.24602 38.8401 3.13894 38.462C3.03186 38.0838 2.81627 37.9213 2.43831 37.9204C2.06034 37.9195 0.978917 38.5648 0.385241 38.4553C-0.0897023 38.3678 -0.0274183 37.9144 0.0630899 37.6986Z" fill="#E6E7E9"/>
<path d="M32.4457 52.9317C43.6933 52.9317 52.8113 43.8137 52.8113 32.5661C52.8113 21.3184 43.6933 12.2004 32.4457 12.2004C21.198 12.2004 12.0801 21.3184 12.0801 32.5661C12.0801 43.8137 21.198 52.9317 32.4457 52.9317Z" fill="#1DBF73" stroke="#1DBF73" stroke-width="0.5"/>
<path d="M45.9463 27.1316L42.8383 30.5178C41.3076 28.8478 37.7359 25.1832 32.7261 25.1832C27.5302 25.1832 23.5105 28.7706 22.1499 30.5178L18.9492 27.6883C20.3871 25.2298 25.1557 20.322 32.7261 20.3591C40.2964 20.3963 44.6938 24.8897 45.9463 27.1316Z" fill="#193634"/>
<path d="M30.0332 24.6748V42.0699L32.4917 44.6675L34.8575 42.0699V24.6748H30.0332Z" fill="#193634"/>
<path d="M97.5336 15.7937V20.2414H88.6382V46.9279H84.1904V20.2414H75.2949V15.7937H97.5336ZM113.101 15.7937C115.562 15.7937 117.66 16.661 119.394 18.3956C121.129 20.1302 121.996 22.228 121.996 24.6892C121.996 27.1503 121.129 29.2481 119.394 30.9827C119.261 31.1162 119.127 31.2422 118.994 31.3607C119.127 31.4794 119.261 31.6054 119.394 31.7389C121.129 33.4735 121.996 35.5713 121.996 38.0324C121.996 40.4935 121.129 42.5913 119.394 44.3259C117.66 46.0606 115.562 46.9279 113.101 46.9279H101.981V15.7937H113.101ZM106.429 33.5846V42.4802H113.101C114.331 42.4802 115.377 42.0503 116.236 41.1904C117.111 40.3156 117.549 39.2629 117.549 38.0324C117.549 36.8019 117.111 35.7566 116.236 34.8967C115.377 34.022 114.331 33.5846 113.101 33.5846H106.429ZM113.101 20.2414H106.429V29.1369H113.101C114.331 29.1369 115.377 28.707 116.236 27.847C117.111 26.9723 117.549 25.9197 117.549 24.6892C117.549 23.4585 117.111 22.4133 116.236 21.5534C115.377 20.6787 114.331 20.2414 113.101 20.2414ZM137.564 15.7937C141.863 15.7937 145.533 17.3133 148.571 20.3526C151.611 23.3919 153.131 27.0613 153.131 31.3607C153.131 35.6603 151.611 39.3297 148.571 42.3689C145.533 45.4082 141.863 46.9279 137.564 46.9279H126.444V15.7937H137.564ZM137.564 42.4802C140.632 42.4802 143.249 41.3979 145.413 39.2332C147.593 37.0538 148.683 34.4297 148.683 31.3607C148.683 28.2918 147.593 25.675 145.413 23.5105C143.249 21.3311 140.632 20.2414 137.564 20.2414H130.892V42.4802H137.564ZM173.145 15.7937C176.11 15.7937 179.816 16.5349 184.264 18.0175V22.4653C179.816 20.9827 176.11 20.2414 173.145 20.2414C170.076 20.2414 167.452 21.3311 165.273 23.5105C163.108 25.675 162.027 28.2918 162.027 31.3607C162.027 34.4297 163.108 37.0538 165.273 39.2332C167.452 41.3979 170.076 42.4802 173.145 42.4802C176.11 42.4802 179.816 41.7389 184.264 40.2563V44.704C179.816 46.1866 176.11 46.9279 173.145 46.9279C168.845 46.9279 165.177 45.4082 162.137 42.3689C159.097 39.3297 157.579 35.6603 157.579 31.3607C157.579 27.0613 159.097 23.3919 162.137 20.3526C165.177 17.3133 168.845 15.7937 173.145 15.7937Z" fill="white"/>
<path d="M200.215 10.229C200.215 9.94153 199.982 9.7085 199.694 9.7085C199.407 9.7085 199.174 9.94153 199.174 10.229V54.733C199.174 55.0205 199.407 55.2535 199.694 55.2535C199.982 55.2535 200.215 55.0205 200.215 54.733V10.229Z" fill="#E6E6E8"/>
<path d="M216.258 20.4834V21.6017H214.021V28.3114H212.903V21.6017H210.666V20.4834H216.258ZM221.29 28.3114C220.208 28.3114 219.287 27.9294 218.522 27.1652C217.758 26.401 217.375 25.4784 217.375 24.3974C217.375 23.3164 217.758 22.3938 218.522 21.6297C219.287 20.8655 220.208 20.4834 221.29 20.4834C222.371 20.4834 223.294 20.8655 224.058 21.6297C224.821 22.3938 225.204 23.3164 225.204 24.3974C225.204 25.4784 224.821 26.401 224.058 27.1652C223.294 27.9294 222.371 28.3114 221.29 28.3114ZM221.29 21.6017C220.518 21.6017 219.858 21.8756 219.31 22.4236C218.767 22.9679 218.495 23.6259 218.495 24.3974C218.495 25.1691 218.767 25.8288 219.31 26.3768C219.858 26.921 220.518 27.1932 221.29 27.1932C222.061 27.1932 222.72 26.921 223.264 26.3768C223.812 25.8288 224.086 25.1691 224.086 24.3974C224.086 23.6259 223.812 22.9679 223.264 22.4236C222.72 21.8756 222.061 21.6017 221.29 21.6017ZM229.118 20.4834C229.736 20.4834 230.265 20.7015 230.701 21.1376C231.137 21.5737 231.355 22.1012 231.355 22.72C231.355 23.3388 231.137 23.8662 230.701 24.3024C230.365 24.6379 229.976 24.8448 229.532 24.923L231.489 28.3114H230.192L228.257 24.9566H227.441V28.3114H226.322V20.4834H229.118ZM229.118 21.6017H227.441V23.8382H229.118C229.428 23.8382 229.691 23.7302 229.907 23.514C230.127 23.294 230.236 23.0294 230.236 22.72C230.236 22.4106 230.127 22.1477 229.907 21.9316C229.691 21.7117 229.428 21.6017 229.118 21.6017ZM236.387 28.3114C235.306 28.3114 234.383 27.9294 233.619 27.1652C232.856 26.401 232.473 25.4784 232.473 24.3974C232.473 23.3164 232.856 22.3938 233.619 21.6297C234.383 20.8655 235.306 20.4834 236.387 20.4834C237.469 20.4834 238.391 20.8655 239.155 21.6297C239.919 22.3938 240.301 23.3164 240.301 24.3974C240.301 25.4784 239.919 26.401 239.155 27.1652C238.391 27.9294 237.469 28.3114 236.387 28.3114ZM236.387 21.6017C235.616 21.6017 234.956 21.8756 234.408 22.4236C233.863 22.9679 233.591 23.6259 233.591 24.3974C233.591 25.1691 233.863 25.8288 234.408 26.3768C234.956 26.921 235.616 27.1932 236.387 27.1932C237.159 27.1932 237.816 26.921 238.361 26.3768C238.909 25.8288 239.182 25.1691 239.182 24.3974C239.182 23.6259 238.909 22.9679 238.361 22.4236C237.816 21.8756 237.159 21.6017 236.387 21.6017ZM242.537 22.2391V28.3114H241.419V20.4834H242.79L246.451 26.5557V20.4834H247.57V28.3114H246.2L242.537 22.2391ZM254.28 20.4834V21.6017H252.043V28.3114H250.925V21.6017H248.688V20.4834H254.28ZM259.312 28.3114C258.231 28.3114 257.308 27.9294 256.544 27.1652C255.78 26.401 255.398 25.4784 255.398 24.3974C255.398 23.3164 255.78 22.3938 256.544 21.6297C257.308 20.8655 258.231 20.4834 259.312 20.4834C260.393 20.4834 261.316 20.8655 262.08 21.6297C262.844 22.3938 263.226 23.3164 263.226 24.3974C263.226 25.4784 262.844 26.401 262.08 27.1652C261.316 27.9294 260.393 28.3114 259.312 28.3114ZM259.312 21.6017C258.54 21.6017 257.881 21.8756 257.333 22.4236C256.789 22.9679 256.517 23.6259 256.517 24.3974C256.517 25.1691 256.789 25.8288 257.333 26.3768C257.881 26.921 258.54 27.1932 259.312 27.1932C260.084 27.1932 260.742 26.921 261.286 26.3768C261.834 25.8288 262.107 25.1691 262.107 24.3974C262.107 23.6259 261.834 22.9679 261.286 22.4236C260.742 21.8756 260.084 21.6017 259.312 21.6017ZM269.98 20.4834C270.599 20.4834 271.126 20.7015 271.562 21.1376C271.999 21.5737 272.217 22.1012 272.217 22.72C272.217 23.3388 271.999 23.8662 271.562 24.3024C271.53 24.336 271.496 24.3676 271.462 24.3974C271.496 24.4272 271.53 24.459 271.562 24.4925C271.999 24.9286 272.217 25.4561 272.217 26.0749C272.217 26.6937 271.999 27.2211 271.562 27.6573C271.126 28.0934 270.599 28.3114 269.98 28.3114H267.185V20.4834H269.98ZM268.303 24.9566V27.1932H269.98C270.29 27.1932 270.552 27.0851 270.768 26.8688C270.988 26.6489 271.099 26.3842 271.099 26.0749C271.099 25.7654 270.988 25.5027 270.768 25.2864C270.552 25.0665 270.29 24.9566 269.98 24.9566H268.303ZM269.98 21.6017H268.303V23.8382H269.98C270.29 23.8382 270.552 23.7302 270.768 23.514C270.988 23.294 271.099 23.0294 271.099 22.72C271.099 22.4106 270.988 22.1477 270.768 21.9316C270.552 21.7117 270.29 21.6017 269.98 21.6017ZM273.336 24.9566V20.4834H274.454V24.9566C274.454 25.5753 274.671 26.1029 275.108 26.5389C275.544 26.9751 276.071 27.1932 276.691 27.1932C277.309 27.1932 277.837 26.9751 278.273 26.5389C278.709 26.1029 278.926 25.5753 278.926 24.9566V20.4834H280.045V24.9566C280.045 25.8848 279.717 26.6769 279.062 27.333C278.408 27.9853 277.618 28.3114 276.691 28.3114C275.761 28.3114 274.97 27.9853 274.313 27.333C273.661 26.6769 273.336 25.8848 273.336 24.9566ZM283.4 20.4834C283.96 20.4834 284.705 20.7257 285.637 21.2103V22.3286C284.705 21.844 283.96 21.6017 283.4 21.6017C283.09 21.6017 282.826 21.7117 282.606 21.9316C282.39 22.1477 282.282 22.4106 282.282 22.72C282.282 23.1301 282.84 23.5773 283.96 24.0619C285.077 24.5465 285.637 25.2175 285.637 26.0749C285.637 26.6937 285.418 27.2211 284.982 27.6573C284.546 28.0934 284.018 28.3114 283.4 28.3114C282.84 28.3114 282.095 28.0691 281.163 27.5845V26.4663C282.095 26.9509 282.84 27.1932 283.4 27.1932C283.71 27.1932 283.973 27.0851 284.189 26.8688C284.409 26.6489 284.518 26.3842 284.518 26.0749C284.518 25.6649 283.96 25.2175 282.84 24.7329C281.723 24.2483 281.163 23.5773 281.163 22.72C281.163 22.1012 281.382 21.5737 281.818 21.1376C282.254 20.7015 282.781 20.4834 283.4 20.4834ZM287.873 28.3114H286.755V20.4834H287.873V28.3114ZM290.109 22.2391V28.3114H288.992V20.4834H290.362L294.024 26.5557V20.4834H295.142V28.3114H293.773L290.109 22.2391ZM300.733 20.4834V21.6017H297.378V23.8382H300.733V24.9566H297.378V27.1932H300.733V28.3114H296.261V20.4834H300.733ZM304.088 20.4834C304.647 20.4834 305.393 20.7257 306.325 21.2103V22.3286C305.393 21.844 304.647 21.6017 304.088 21.6017C303.779 21.6017 303.514 21.7117 303.294 21.9316C303.078 22.1477 302.97 22.4106 302.97 22.72C302.97 23.1301 303.53 23.5773 304.647 24.0619C305.765 24.5465 306.325 25.2175 306.325 26.0749C306.325 26.6937 306.107 27.2211 305.67 27.6573C305.234 28.0934 304.707 28.3114 304.088 28.3114C303.53 28.3114 302.784 28.0691 301.852 27.5845V26.4663C302.784 26.9509 303.53 27.1932 304.088 27.1932C304.398 27.1932 304.66 27.0851 304.876 26.8688C305.096 26.6489 305.207 26.3842 305.207 26.0749C305.207 25.6649 304.647 25.2175 303.53 24.7329C302.411 24.2483 301.852 23.5773 301.852 22.72C301.852 22.1012 302.07 21.5737 302.506 21.1376C302.941 20.7015 303.47 20.4834 304.088 20.4834ZM309.679 20.4834C310.239 20.4834 310.985 20.7257 311.916 21.2103V22.3286C310.985 21.844 310.239 21.6017 309.679 21.6017C309.37 21.6017 309.106 21.7117 308.886 21.9316C308.67 22.1477 308.562 22.4106 308.562 22.72C308.562 23.1301 309.121 23.5773 310.239 24.0619C311.357 24.5465 311.916 25.2175 311.916 26.0749C311.916 26.6937 311.698 27.2211 311.262 27.6573C310.826 28.0934 310.299 28.3114 309.679 28.3114C309.121 28.3114 308.376 28.0691 307.443 27.5845V26.4663C308.376 26.9509 309.121 27.1932 309.679 27.1932C309.989 27.1932 310.252 27.0851 310.468 26.8688C310.688 26.6489 310.799 26.3842 310.799 26.0749C310.799 25.6649 310.239 25.2175 309.121 24.7329C308.002 24.2483 307.443 23.5773 307.443 22.72C307.443 22.1012 307.661 21.5737 308.097 21.1376C308.533 20.7015 309.061 20.4834 309.679 20.4834ZM213.462 36.4892C214.543 36.4892 215.465 36.8713 216.23 37.6355C216.994 38.3996 217.375 39.3222 217.375 40.4032C217.375 41.4842 216.994 42.4068 216.23 43.171C215.465 43.9352 214.543 44.3172 213.462 44.3172H210.666V36.4892H213.462ZM213.462 43.199C214.234 43.199 214.891 42.9268 215.435 42.3826C215.983 41.8346 216.258 41.1749 216.258 40.4032C216.258 39.6317 215.983 38.9738 215.435 38.4294C214.891 37.8815 214.234 37.6075 213.462 37.6075H211.785V43.199H213.462ZM222.967 36.4892V37.6075H219.612V39.844H222.967V40.9624H219.612V43.199H222.967V44.3172H218.495V36.4892H222.967ZM227.731 44.3172H226.591L223.745 36.4892H224.936L227.161 42.6063L229.386 36.4892H230.577L227.731 44.3172ZM235.828 36.4892V37.6075H232.473V39.844H235.828V40.9624H232.473V43.199H235.828V44.3172H231.355V36.4892H235.828ZM238.065 43.199H241.979V44.3172H236.945V36.4892H238.065V43.199ZM247.011 44.3172C245.93 44.3172 245.007 43.9352 244.243 43.171C243.479 42.4068 243.097 41.4842 243.097 40.4032C243.097 39.3222 243.479 38.3996 244.243 37.6355C245.007 36.8713 245.93 36.4892 247.011 36.4892C248.092 36.4892 249.015 36.8713 249.779 37.6355C250.543 38.3996 250.925 39.3222 250.925 40.4032C250.925 41.4842 250.543 42.4068 249.779 43.171C249.015 43.9352 248.092 44.3172 247.011 44.3172ZM247.011 37.6075C246.239 37.6075 245.579 37.8815 245.032 38.4294C244.488 38.9738 244.214 39.6317 244.214 40.4032C244.214 41.1749 244.488 41.8346 245.032 42.3826C245.579 42.9268 246.239 43.199 247.011 43.199C247.783 43.199 248.44 42.9268 248.985 42.3826C249.533 41.8346 249.806 41.1749 249.806 40.4032C249.806 39.6317 249.533 38.9738 248.985 38.4294C248.44 37.8815 247.783 37.6075 247.011 37.6075ZM254.838 36.4892C255.458 36.4892 255.985 36.7073 256.421 37.1434C256.858 37.5796 257.075 38.107 257.075 38.7259C257.075 39.3446 256.858 39.872 256.421 40.3082C255.985 40.7443 255.458 40.9624 254.838 40.9624H253.161V44.3172H252.043V36.4892H254.838ZM254.838 37.6075H253.161V39.844H254.838C255.148 39.844 255.411 39.736 255.627 39.5198C255.847 39.2999 255.957 39.0352 255.957 38.7259C255.957 38.4164 255.847 38.1536 255.627 37.9374C255.411 37.7175 255.148 37.6075 254.838 37.6075ZM259.312 38.2449V44.3172H258.194V36.4892H259.563L262.107 40.7107L264.651 36.4892H266.021V44.3172H264.904V38.2449L262.107 42.8802L259.312 38.2449ZM271.613 36.4892V37.6075H268.258V39.844H271.613V40.9624H268.258V43.199H271.613V44.3172H267.14V36.4892H271.613ZM273.85 38.2449V44.3172H272.731V36.4892H274.101L277.764 42.5615V36.4892H278.882V44.3172H277.512L273.85 38.2449ZM285.591 36.4892V37.6075H283.356V44.3172H282.237V37.6075H280V36.4892H285.591ZM293.464 36.4892C294.21 36.4892 295.142 36.6756 296.261 37.0484V38.1667C295.142 37.7939 294.21 37.6075 293.464 37.6075C292.693 37.6075 292.033 37.8815 291.485 38.4294C290.941 38.9738 290.669 39.6317 290.669 40.4032C290.669 41.1749 290.941 41.8346 291.485 42.3826C292.033 42.9268 292.693 43.199 293.464 43.199C294.21 43.199 295.142 43.0126 296.261 42.6399V43.7581C295.142 44.1309 294.21 44.3172 293.464 44.3172C292.384 44.3172 291.462 43.9352 290.696 43.171C289.932 42.4068 289.55 41.4842 289.55 40.4032C289.55 39.3222 289.932 38.3996 290.696 37.6355C291.462 36.8713 292.384 36.4892 293.464 36.4892ZM301.852 36.4892V37.6075H298.496V39.844H301.852V40.9624H298.496V43.199H301.852V44.3172H297.378V36.4892H301.852ZM304.088 38.2449V44.3172H302.97V36.4892H304.34L308.002 42.5615V36.4892H309.121V44.3172H307.751L304.088 38.2449ZM315.831 36.4892V37.6075H313.594V44.3172H312.476V37.6075H310.239V36.4892H315.831ZM319.745 36.4892C320.363 36.4892 320.89 36.7073 321.327 37.1434C321.763 37.5796 321.981 38.107 321.981 38.7259C321.981 39.3446 321.763 39.872 321.327 40.3082C320.992 40.6437 320.601 40.8506 320.159 40.9288L322.115 44.3172H320.818L318.883 40.9624H318.068V44.3172H316.948V36.4892H319.745ZM319.745 37.6075H318.068V39.844H319.745C320.053 39.844 320.316 39.736 320.532 39.5198C320.752 39.2999 320.863 39.0352 320.863 38.7259C320.863 38.4164 320.752 38.1536 320.532 37.9374C320.316 37.7175 320.053 37.6075 319.745 37.6075ZM327.572 36.4892V37.6075H324.217V39.844H327.572V40.9624H324.217V43.199H327.572V44.3172H323.1V36.4892H327.572Z" fill="white"/>
</svg>
