<svg width="258" height="25" viewBox="0 0 258 25" fill="none" xmlns="http://www.w3.org/2000/svg">
<path d="M31.4714 22.9281C31.4714 23.9107 30.6518 24.7296 29.6683 24.7296H1.80305C0.819567 24.7296 0 23.9107 0 22.9281C0 22.273 0.327827 21.7817 0.819568 21.4542C0.819568 21.345 0.874205 21.2904 0.983481 21.2904L24.0953 3.93057H1.80305C0.819567 3.93057 0 3.11171 0 1.96531C0 0.982677 0.819567 0.163818 1.80305 0.163818H29.5044C29.5044 0.163818 29.5591 0.163818 29.6683 0.163818C30.1601 0.163818 30.6518 0.491362 31.1436 0.982678C31.6353 1.80154 31.4714 2.94794 30.6518 3.43926L7.21219 21.1266H29.6683C30.6518 21.1266 31.4714 21.9455 31.4714 22.9281Z" fill="#FF395B"/>
<path d="M94.4139 7.20625C94.4139 7.5338 94.4139 7.80675 94.4139 8.02511C94.4139 9.49906 93.7582 14.7398 87.5295 15.0673C87.2017 15.0673 87.0378 14.9035 86.7099 15.0673L66.7125 14.9035V23.0921C66.7125 24.0748 65.893 24.8936 64.9095 24.8936C63.926 24.8936 63.1064 24.0748 63.1064 23.0921V13.102C63.1064 12.1194 63.926 11.3005 64.9095 11.3005H87.2017C88.1852 11.1368 90.8078 10.4817 90.6439 7.5338C90.7531 5.02263 89.4965 3.82163 86.8739 3.93081H64.9095C63.926 3.93081 63.1064 3.11196 63.1064 1.96555C63.1064 0.982921 63.926 0.164062 64.9095 0.164062H88.1852C88.1852 0.164062 88.1852 0.218652 88.1852 0.327833C92.5562 0.546196 94.6324 2.839 94.4139 7.20625Z" fill="#FFB22F"/>
<path d="M225.054 23.0917C225.054 24.0744 224.398 24.8932 223.25 24.8932H195.549C194.566 24.8932 193.746 24.0744 193.746 23.0917C193.746 23.0917 193.746 23.0371 193.746 22.928V2.2927C193.746 1.31007 194.566 0.491211 195.549 0.491211C196.533 0.491211 197.352 1.31007 197.352 2.2927V21.2902H223.25C224.398 21.2902 225.054 22.1091 225.054 23.0917Z" fill="#43454B"/>
<path d="M258 23.0918C258 24.0744 257.18 24.8933 256.197 24.8933H228.331C227.512 24.8933 226.856 24.5657 226.692 23.9106C226.583 23.6923 226.528 23.4193 226.528 23.0918V11.9553C226.528 10.9727 227.348 10.1538 228.331 10.1538H253.574C254.558 10.1538 255.377 10.9727 255.377 11.9553C255.377 12.9379 254.558 13.7568 253.574 13.7568H230.134V21.2903H256.197C257.18 21.2903 258 22.1092 258 23.0918Z" fill="#43454B"/>
<path d="M226.528 2.2927C226.528 1.31007 227.348 0.491211 228.331 0.491211H256.197C257.18 0.491211 258 1.31007 258 2.2927C258 3.27533 257.18 4.09419 256.197 4.09419H228.331C227.348 4.09419 226.528 3.27533 226.528 2.2927Z" fill="#43454B"/>
<path d="M191.615 24.7296C190.796 25.2209 189.648 25.0571 189.157 24.2383L184.895 17.8512H168.176L164.242 24.2383C163.75 25.0571 162.603 25.2209 161.783 24.7296C160.964 24.2383 160.636 23.0919 161.128 22.273L165.717 15.0671H165.881C166.209 14.5757 166.701 14.2482 167.192 14.2482H182.6L175.224 3.11171C174.568 2.29285 174.896 1.14645 175.716 0.655129C176.535 4.15444e-05 177.683 0.327586 178.175 1.14645L192.107 22.273C192.763 23.0919 192.435 24.2383 191.615 24.7296Z" fill="#43454B"/>
<path d="M160.8 20.3078C160.691 23.0373 158.997 24.5112 155.719 24.7296C155.609 24.8388 155.5 24.8934 155.391 24.8934H155.063C154.954 24.8934 154.844 24.8934 154.735 24.8934H134.574C134.574 24.8934 134.519 24.8934 134.41 24.8934C130.367 24.7842 128.509 22.6006 128.837 18.3425C128.946 18.2333 129.001 18.1787 129.001 18.1787C128.891 18.0695 128.837 18.015 128.837 18.015V6.55092C128.837 5.56829 129.001 0.32759 135.393 0.163818H153.752C154.407 0.163818 154.954 0.163818 155.391 0.163818C155.5 0.163818 155.555 0.163818 155.555 0.163818C158.942 0.491362 160.691 2.0199 160.8 4.74943C161.128 7.15142 160.527 8.35241 158.997 8.35241C157.358 8.57077 156.647 7.58814 156.866 5.40452C156.866 4.09434 155.391 3.93057 154.735 3.93057H136.541C133.809 4.25811 132.497 5.5137 132.607 7.69732V17.8512C132.497 20.0348 133.809 21.1266 136.541 21.1266H155.227C155.882 21.1266 156.866 20.6353 156.866 19.6527C156.647 17.469 157.358 16.4864 158.997 16.7048C160.527 16.7048 161.128 17.9058 160.8 20.3078Z" fill="#43454B"/>
<path d="M127.525 17.1961C127.525 17.3053 127.525 17.4145 127.525 17.5236C127.525 17.6328 127.525 17.742 127.525 17.8512C127.525 17.8512 128.181 24.4021 121.132 24.7296C121.132 24.8388 121.078 24.8934 120.968 24.8934H102.774C102.774 24.8934 102.719 24.8934 102.61 24.8934C98.4576 24.8934 96.3267 23.3648 96.2175 20.3078C95.8896 17.9058 96.436 16.7048 97.8566 16.7048C99.4957 16.4864 100.206 17.469 99.9875 19.6527C100.206 20.8537 101.08 21.345 102.61 21.1266V21.2904C102.61 21.2904 102.665 21.2358 102.774 21.1266H120.477C122.662 20.9083 123.755 19.7073 123.755 17.5236C123.755 15.2308 122.662 13.9752 120.477 13.7569H102.774C102.774 13.7569 102.719 13.7569 102.61 13.7569C97.9112 13.6477 95.7257 11.5187 96.0536 7.36978C96.0536 7.2606 96.0536 7.15142 96.0536 7.04223C96.0536 6.93305 96.0536 6.82387 96.0536 6.71469C95.7257 2.56581 97.9112 0.382181 102.61 0.163818C102.61 0.163818 102.665 0.163818 102.774 0.163818H120.968C121.078 0.163818 121.132 0.163818 121.132 0.163818C125.285 0.163818 127.416 1.69235 127.525 4.74943C127.853 7.15142 127.252 8.35241 125.722 8.35241C124.083 8.57077 123.372 7.58814 123.591 5.40452C123.482 4.20352 122.608 3.71221 120.968 3.93057H103.594C101.08 3.93057 99.8236 4.96779 99.8236 7.04223C99.8236 9.11668 101.08 10.1539 103.594 10.1539H120.968C128.181 10.4814 127.525 17.0323 127.525 17.1961Z" fill="#43454B"/>
<path d="M62.7791 23.5832C62.7791 23.6923 62.7244 23.8015 62.6152 23.9107C62.2873 24.402 61.6317 24.7296 60.976 24.7296H50.9773C50.1577 24.7296 49.666 23.9107 49.9938 23.0918L50.3216 22.4368C50.6495 21.6179 51.469 21.1266 52.4525 21.1266H58.0256L47.2073 4.91316L36.389 21.1266H41.9621C42.9455 21.1266 43.7651 21.6179 44.0929 22.4368L44.4208 23.0918C44.7486 23.9107 44.2569 24.7296 43.4373 24.7296H33.4386C32.7829 24.7296 32.1273 24.402 31.7994 23.9107C31.6902 23.8015 31.6355 23.6923 31.6355 23.5832C31.3077 22.9281 31.3077 22.273 31.6355 21.6179L45.7321 0.655087C46.0599 0.327543 46.5516 0 47.2073 0C47.8629 0 48.3547 0.327543 48.6825 0.655087L62.7791 21.6179C63.1069 22.273 63.1069 22.9281 62.7791 23.5832Z" fill="#4CBF6F"/>
</svg>
